<svg width="26" height="26" viewBox="0 0 26 26" fill="none" xmlns="http://www.w3.org/2000/svg">
<path d="M1.00304 13.0125C1.00286 15.3598 1.69937 17.6545 3.00447 19.6063C4.30957 21.5581 6.16466 23.0794 8.33513 23.9778C10.5056 24.8762 12.894 25.1114 15.1982 24.6536C17.5024 24.1957 19.6191 23.0655 21.2804 21.4057C22.9417 19.746 24.0731 17.6313 24.5315 15.329C24.9899 13.0268 24.7547 10.6405 23.8557 8.47183C22.9566 6.30317 21.4342 4.44956 19.4808 3.14544C17.5274 1.84131 15.2308 1.14524 12.8814 1.14524C11.3197 1.13852 9.77214 1.44089 8.32802 2.03488C6.88389 2.62888 5.5718 3.50274 4.46747 4.60605C3.36313 5.70935 2.48841 7.02024 1.8938 8.46308C1.29918 9.90591 0.996434 11.4521 1.00304 13.0125Z" stroke="#2818C6" stroke-width="1.34701" stroke-linecap="round" stroke-linejoin="round"/>
<path d="M3.86358 20.7365C4.97871 22.0361 6.36202 23.0793 7.9186 23.7945C9.47518 24.5097 11.1682 24.88 12.8815 24.88C14.5948 24.88 16.2878 24.5097 17.8444 23.7945C19.4009 23.0793 20.7842 22.0361 21.8994 20.7365C20.9237 19.2344 19.5876 17.9998 18.0126 17.1451C16.4376 16.2904 14.6738 15.8427 12.8815 15.8427C11.0892 15.8427 9.32534 16.2904 7.75037 17.1451C6.1754 17.9998 4.83929 19.2344 3.86358 20.7365Z" stroke="#2818C6" stroke-width="1.34701" stroke-linecap="round" stroke-linejoin="round"/>
<path d="M12.8813 13.0125C10.7579 13.0125 9.0365 11.2926 9.0365 9.171C9.0365 7.04938 10.7579 5.32947 12.8813 5.32948C15.0048 5.32948 16.7262 7.04938 16.7262 9.171C16.7262 11.2926 15.0048 13.0125 12.8813 13.0125Z" stroke="#2818C6" stroke-width="1.34701" stroke-linecap="round" stroke-linejoin="round"/>
</svg>
