<svg width="899" height="889" viewBox="0 0 899 889" fill="none" xmlns="http://www.w3.org/2000/svg">
<path d="M495.22 228.3L607.28 340.36C612.583 345.669 619.777 348.654 627.28 348.66H897.25M108.08 495.37L203.92 399.5C209.223 394.191 216.417 391.206 223.92 391.2H898.78M506.99 473.89L535.28 445.61C540.582 440.299 547.775 437.31 555.28 437.3H897.25M110.67 258.34H153.37C160.873 258.346 168.067 261.331 173.37 266.64L298 391.23M261.75 695.86L287.28 670.34C292.582 665.029 299.775 662.04 307.28 662.03H464.64L689.36 437.3M560.09 566.58V762.79C560.09 766.514 559.356 770.201 557.93 773.642C556.504 777.082 554.414 780.208 551.78 782.84L541.02 793.59M198.22 291.5V157.63C198.234 150.126 201.222 142.934 206.53 137.63L248.5 95.64M510.25 192C510.25 220.349 487.269 243.33 458.92 243.33C430.571 243.33 407.59 220.349 407.59 192C407.59 163.651 430.571 140.67 458.92 140.67C487.269 140.67 510.25 163.651 510.25 192ZM123.11 531.67C123.11 560.019 100.129 583 71.78 583C43.4312 583 20.45 560.019 20.45 531.67C20.45 503.321 43.4312 480.34 71.78 480.34C100.129 480.34 123.11 503.321 123.11 531.67ZM522.02 510.2C522.02 538.549 499.039 561.53 470.69 561.53C442.341 561.53 419.36 538.549 419.36 510.2C419.36 481.851 442.341 458.87 470.69 458.87C499.039 458.87 522.02 481.851 522.02 510.2ZM110.66 258.33C110.66 286.679 87.6788 309.66 59.33 309.66C30.9812 309.66 8 286.679 8 258.33C8 229.981 30.9812 207 59.33 207C87.6788 207 110.66 229.981 110.66 258.33ZM276.77 732.17C276.77 760.519 253.789 783.5 225.44 783.5C197.091 783.5 174.11 760.519 174.11 732.17C174.11 703.821 197.091 680.84 225.44 680.84C253.789 680.84 276.77 703.821 276.77 732.17ZM556.05 829.89C556.05 858.239 533.069 881.22 504.72 881.22C476.371 881.22 453.39 858.239 453.39 829.89C453.39 801.541 476.371 778.56 504.72 778.56C533.069 778.56 556.05 801.541 556.05 829.89ZM336.11 59.33C336.11 87.6788 313.129 110.66 284.78 110.66C256.431 110.66 233.45 87.6788 233.45 59.33C233.45 30.9812 256.431 8 284.78 8C313.129 8 336.11 30.9812 336.11 59.33Z" stroke="#FBFBFB" stroke-width="15" stroke-linecap="round" stroke-linejoin="round"/>
</svg>
