<svg width="34" height="25" viewBox="0 0 34 25" fill="none" xmlns="http://www.w3.org/2000/svg">
<path d="M17.2071 22.3834C17.2071 22.3834 21.8094 18.4839 30.3791 20.1181L30.3791 1.89875C20.7204 -0.614357 17.2071 4.70081 17.2071 4.70081M17.2071 22.3834L17.2071 4.70081M17.2071 22.3834C17.2071 22.3834 26.3491 20.2236 33.1689 23.739L33.1689 3.08628L30.3791 3.08628M17.2071 22.3834C17.2071 22.3834 12.6022 18.4839 4.0326 20.1181L4.0326 1.89875C13.6887 -0.614358 17.2071 4.70081 17.2071 4.70081M17.2071 22.3834C17.2071 22.3834 8.06253 20.221 1.24529 23.739L1.24529 3.08628L4.02917 3.08628" stroke="#2818C6" stroke-width="1.34701" stroke-linecap="round" stroke-linejoin="round"/>
</svg>
