<svg width="63" height="37" viewBox="0 0 63 37" fill="none" xmlns="http://www.w3.org/2000/svg">
<path d="M49.7152 1.8533H55.8915C56.5818 1.85162 57.2657 1.9871 57.9039 2.25198C58.5422 2.51687 59.1222 2.90595 59.611 3.39695C60.0997 3.88796 60.4874 4.47123 60.752 5.11337C61.0165 5.75552 61.1527 6.44391 61.1527 7.13914V31.0299H55.3408M47.1439 31.0299H27.8992M10.9209 31.0299H1.84717V7.13914C1.84717 6.99408 1.84717 6.8533 1.84717 6.71251C1.95383 5.38584 2.55354 4.14852 3.52652 3.24772C4.49949 2.34692 5.77409 1.84896 7.09571 1.8533H39.9383M35.1176 18.3635H11.3954M44.759 19.221H42.6833M44.759 31.0385V7.39937H35.1176V31.0171L44.759 31.0385ZM1.84717 6.70825C1.84717 6.8533 1.84717 6.99408 1.84717 7.13487V13.5086H7.15078V6.70825H1.84717ZM11.9715 13.5086H18.7238V6.70825H11.9715V13.5086ZM23.5445 13.5086H30.2969V6.70825H23.5445V13.5086ZM49.5797 18.3038H61.1527V7.39937H49.5797V18.3038ZM19.5838 26.8917C18.7726 26.8917 17.9796 27.134 17.3052 27.588C16.6308 28.0419 16.1052 28.6872 15.7949 29.442C15.4847 30.1969 15.4037 31.0274 15.5623 31.8286C15.7209 32.6298 16.1118 33.3657 16.6857 33.943C17.2596 34.5204 17.9907 34.9134 18.7864 35.0723C19.5821 35.2311 20.4067 35.1487 21.1559 34.8355C21.9051 34.5223 22.5452 33.9923 22.9953 33.3126C23.4454 32.6329 23.6852 31.8341 23.6843 31.0171C23.6843 30.475 23.5782 29.9382 23.3721 29.4374C23.166 28.9366 22.8639 28.4816 22.483 28.0985C22.1022 27.7154 21.6501 27.4116 21.1527 27.2045C20.6552 26.9974 20.1221 26.8911 19.5838 26.8917ZM51.2402 26.8917C50.429 26.8917 49.6361 27.134 48.9616 27.588C48.2872 28.0419 47.7616 28.6872 47.4514 29.442C47.1412 30.1969 47.0602 31.0274 47.2188 31.8286C47.3773 32.6298 47.7683 33.3657 48.3422 33.943C48.9161 34.5204 49.6471 34.9134 50.4428 35.0723C51.2386 35.2311 52.0632 35.1487 52.8124 34.8355C53.5616 34.5223 54.2017 33.9923 54.6518 33.3126C55.1018 32.6329 55.3416 31.8341 55.3408 31.0171C55.3408 30.475 55.2347 29.9382 55.0286 29.4374C54.8224 28.9366 54.5203 28.4816 54.1395 28.0985C53.7587 27.7154 53.3066 27.4116 52.8091 27.2045C52.3116 26.9974 51.7785 26.8911 51.2402 26.8917Z" stroke="url(#paint0_linear)" stroke-width="2" stroke-linecap="round" stroke-linejoin="round"/>
<defs>
<linearGradient id="paint0_linear" x1="31.4999" y1="1.85327" x2="31.4999" y2="35.1511" gradientUnits="userSpaceOnUse">
<stop stop-color="#102CFC"/>
<stop offset="1" stop-color="#5B0DFD"/>
</linearGradient>
</defs>
</svg>
