<svg width="27" height="28" viewBox="0 0 27 28" fill="none" xmlns="http://www.w3.org/2000/svg">
<path d="M26.9402 14.144C26.9431 13.6622 26.7563 13.1986 26.4203 12.8533C26.0842 12.508 25.6258 12.3088 25.1442 12.2987H25.0936C24.7405 12.2984 24.3947 12.3994 24.0974 12.5899C23.8001 12.7804 23.5637 13.0523 23.4164 13.3732L23.2965 13.3793C23.256 12.8693 23.1753 12.3633 23.0551 11.866C23.2916 11.5793 23.4214 11.2194 23.4225 10.8478C23.422 10.4559 23.2773 10.0779 23.0159 9.78597C22.7546 9.494 22.3949 9.30844 22.0055 9.26468C21.7144 8.76681 21.3796 8.2958 21.005 7.85721L21.2024 7.67755C21.5299 7.8021 21.8859 7.83122 22.2293 7.76152C22.5726 7.69183 22.8892 7.52618 23.1422 7.2838C23.3823 7.05299 23.5556 6.76153 23.6436 6.44029C23.7317 6.11904 23.7313 5.77997 23.6424 5.45895C23.5535 5.13794 23.3795 4.84693 23.1387 4.61674C22.898 4.38654 22.5995 4.22573 22.2748 4.15133C21.9502 4.07692 21.6114 4.09169 21.2945 4.19407C20.9775 4.29645 20.6942 4.48263 20.4744 4.7329C20.2546 4.98317 20.1065 5.28822 20.0459 5.61576C19.9853 5.94329 20.0144 6.28112 20.1301 6.59348L19.9469 6.79592C19.5392 6.4451 19.1032 6.12871 18.6432 5.85002C18.6055 5.45553 18.4222 5.08923 18.1291 4.82256C17.8359 4.5559 17.454 4.40797 17.0577 4.40763C16.6943 4.4094 16.3421 4.53428 16.0588 4.7619C15.5213 4.62291 14.9729 4.53029 14.4196 4.48507L14.4414 4.05235C14.7543 3.90363 15.0193 3.67025 15.2064 3.37866C15.3935 3.08706 15.4952 2.7489 15.5001 2.40246V2.37817C15.4983 1.89289 15.3064 1.42761 14.9657 1.08211C14.6249 0.736599 14.1624 0.538361 13.6772 0.529892L13.6529 0.529892C13.2301 0.529926 12.8201 0.675026 12.4914 0.940961C12.1626 1.2069 11.9351 1.57757 11.8467 1.99107C11.7583 2.40458 11.8145 2.83589 12.0058 3.21298C12.1971 3.59006 12.512 3.8901 12.8979 4.06298L12.9171 4.47646C12.3578 4.51778 11.8031 4.60753 11.2592 4.74469C10.9742 4.51425 10.6191 4.38802 10.2527 4.38688C9.85787 4.38715 9.47724 4.53394 9.18451 4.79883C8.89178 5.06372 8.70778 5.42785 8.66816 5.82066C8.20882 6.09569 7.77296 6.40817 7.36504 6.75492L7.04774 6.40065C7.14017 6.17588 7.18763 5.93516 7.18741 5.69211C7.18729 5.30225 7.0638 4.92241 6.83463 4.60703C6.60545 4.29164 6.28235 4.05687 5.9116 3.93636C5.54085 3.81584 5.14147 3.81576 4.77067 3.93612C4.39987 4.05649 4.07668 4.29112 3.84737 4.60641C3.61806 4.9217 3.49442 5.30148 3.49414 5.69135C3.49386 6.08122 3.61696 6.46118 3.84582 6.7768C4.07467 7.09242 4.39753 7.32751 4.76816 7.4484C5.13879 7.5693 5.53816 7.56978 5.90909 7.4498L6.29876 7.8066C5.92035 8.2443 5.58163 8.7148 5.28662 9.21255C5.00068 9.24279 4.72826 9.34989 4.49827 9.52249C4.26828 9.69508 4.08931 9.92672 3.98034 10.1928C3.87137 10.4589 3.83647 10.7496 3.87935 11.0339C3.92223 11.3183 4.04129 11.5857 4.22389 11.8078C4.09867 12.3105 4.01405 12.8225 3.97085 13.3388L3.55082 13.315C3.41029 12.9825 3.17493 12.6989 2.87414 12.4994C2.57335 12.2999 2.22045 12.1935 1.85954 12.1935H1.85094C1.36105 12.1925 0.890821 12.3861 0.543703 12.7318C0.196585 13.0776 0.00101053 13.547 3.90505e-06 14.0369C-0.00100272 14.5269 0.192641 14.9971 0.538335 15.3443C0.88403 15.6914 1.35346 15.887 1.84335 15.888H1.85195C2.09368 15.8885 2.33311 15.8412 2.55655 15.749C2.77999 15.6568 2.98304 15.5214 3.15406 15.3505C3.29828 15.2065 3.41795 15.0398 3.50831 14.8571L3.96377 14.8384C4.00557 15.4369 4.10316 16.0303 4.25526 16.6107C4.07547 16.8355 3.95996 17.1049 3.92103 17.3901C3.88209 17.6753 3.92119 17.9658 4.03415 18.2306C4.14712 18.4953 4.32973 18.7246 4.56257 18.8938C4.79541 19.0631 5.06976 19.1661 5.35646 19.1918C5.61465 19.6135 5.90444 20.015 6.22335 20.3928L6.00574 20.5866C5.78484 20.4971 5.54875 20.4511 5.31041 20.451C4.94494 20.4509 4.58764 20.5592 4.28372 20.7622C3.9798 20.9652 3.7429 21.2538 3.603 21.5914C3.46309 21.9291 3.42646 22.3007 3.49773 22.6591C3.56901 23.0176 3.74499 23.3469 4.00342 23.6054C4.26185 23.8638 4.59111 24.0398 4.94957 24.1111C5.30803 24.1824 5.67957 24.1457 6.0172 24.0058C6.35484 23.8659 6.64339 23.629 6.84638 23.325C7.04936 23.0211 7.15765 22.6638 7.15755 22.2983C7.15725 22.0931 7.12305 21.8895 7.05634 21.6955L7.27445 21.4602C7.74249 21.8676 8.24851 22.2293 8.78557 22.5402C8.81761 22.8233 8.92531 23.0925 9.09736 23.3196C9.2694 23.5467 9.49944 23.7233 9.76329 23.8307L9.77999 23.8378C10.0197 23.9333 10.2791 23.969 10.5357 23.9419C10.7924 23.9149 11.0386 23.8258 11.2531 23.6825C11.301 23.6502 11.3469 23.6152 11.3908 23.5777C11.8461 23.6859 12.3087 23.7608 12.7749 23.8019L12.7663 23.9416C12.4437 24.0883 12.1702 24.3249 11.9784 24.6229C11.7866 24.921 11.6847 25.2679 11.6848 25.6223V25.6325C11.6879 26.1207 11.8839 26.588 12.2302 26.9322C12.5764 27.2765 13.0447 27.4699 13.533 27.4701H13.5416C14.0295 27.4664 14.4963 27.2702 14.8404 26.9242C15.1844 26.5782 15.3781 26.1103 15.3791 25.6223V25.6132C15.3782 25.256 15.2734 24.9066 15.0774 24.6079C14.8814 24.3092 14.6028 24.074 14.2754 23.931L14.2713 23.8186C14.9196 23.776 15.5619 23.6678 16.1883 23.4957C16.2263 23.5256 16.2657 23.5539 16.3072 23.5807C16.5647 23.746 16.8642 23.8339 17.1701 23.8338C17.3839 23.834 17.5955 23.7906 17.792 23.7062L17.8082 23.7002C18.0719 23.5845 18.2994 23.3997 18.4667 23.1653C18.6339 22.9309 18.7346 22.6556 18.7581 22.3686C19.127 22.1377 19.48 21.8824 19.8148 21.6044L19.9833 21.7957C19.9054 22.1089 19.9106 22.437 19.9982 22.7476C20.0857 23.0583 20.2528 23.3407 20.4828 23.5671C20.7184 23.798 21.0116 23.9615 21.3319 24.0407C21.6521 24.12 21.9878 24.1119 22.3039 24.0176C22.62 23.9232 22.9051 23.7458 23.1295 23.504C23.3539 23.2621 23.5094 22.9646 23.5799 22.6423C23.6504 22.32 23.6333 21.9847 23.5304 21.6712C23.4275 21.3578 23.2425 21.0776 22.9946 20.8598C22.7468 20.642 22.4452 20.4946 22.1211 20.4329C21.797 20.3711 21.4623 20.3973 21.1518 20.5087L21.0314 20.4009C21.4239 19.9368 21.7721 19.437 22.0713 18.9079C22.3566 18.872 22.6267 18.7595 22.8532 18.5824C23.0797 18.4054 23.2541 18.1703 23.3579 17.9022C23.4616 17.6341 23.4909 17.3429 23.4426 17.0595C23.3943 16.776 23.2702 16.511 23.0835 16.2924C23.189 15.8259 23.2599 15.3523 23.2955 14.8753L23.3967 14.8794C23.536 15.2025 23.7649 15.4791 24.0564 15.6764C24.3478 15.8737 24.6896 15.9835 25.0414 15.9928H25.092C25.5744 15.9953 26.0383 15.8078 26.3836 15.4709C26.7289 15.1341 26.9277 14.6749 26.9372 14.1926V14.144H26.9402ZM18.4848 6.70432C18.499 6.67749 18.5127 6.64763 18.5253 6.61777C18.5456 6.56716 18.5638 6.51655 18.5795 6.46594C19.0039 6.74047 19.405 7.04938 19.7788 7.38957C19.8059 7.4147 19.8378 7.43406 19.8726 7.4465C19.9074 7.45894 19.9444 7.4642 19.9813 7.46195C20.0178 7.46029 20.0537 7.45139 20.0868 7.43575C20.1199 7.42011 20.1496 7.39805 20.1741 7.37085L20.6624 6.83286C20.7001 6.79137 20.7245 6.73948 20.7322 6.68395C20.74 6.62843 20.7308 6.57186 20.706 6.52161C20.5731 6.25138 20.5394 5.94308 20.6106 5.6505C20.6818 5.35791 20.8534 5.09961 21.0956 4.92065C21.3378 4.74169 21.635 4.65343 21.9356 4.67126C22.2362 4.68909 22.521 4.81188 22.7403 5.01821C22.9596 5.22455 23.0995 5.50132 23.1356 5.80027C23.1718 6.09922 23.1018 6.40137 22.938 6.65401C22.7741 6.90665 22.5268 7.09374 22.2391 7.18267C21.9514 7.27159 21.6417 7.25669 21.3638 7.14057C21.3325 7.12741 21.3041 7.11426 21.2788 7.1011C21.2283 7.07419 21.1706 7.06358 21.1138 7.07074C21.057 7.0779 21.0038 7.10247 20.9615 7.14108L20.4276 7.62744C20.3732 7.67709 20.3406 7.74626 20.337 7.81984C20.3334 7.89343 20.3591 7.96545 20.4084 8.02018C20.7718 8.42204 21.099 8.85527 21.3861 9.31478C21.3355 9.32929 21.2849 9.34616 21.2343 9.36539C21.2044 9.37703 21.1751 9.39019 21.1467 9.40436C20.9034 9.52031 20.6933 9.6959 20.536 9.9148C20.3787 10.1337 20.2793 10.3888 20.247 10.6565L19.2561 11.1352C18.675 10.0662 17.8027 9.18382 16.7404 8.59055L17.2465 7.58392C17.5098 7.55203 17.761 7.45487 17.9773 7.30127C18.1935 7.14766 18.368 6.94247 18.4848 6.70432ZM13.4459 3.86003C13.444 3.80285 13.4245 3.74765 13.3901 3.70193C13.3557 3.65621 13.308 3.62217 13.2536 3.60445C12.9614 3.50943 12.7127 3.31326 12.5522 3.05122C12.3918 2.78919 12.33 2.47849 12.3782 2.17501C12.4263 1.87153 12.5811 1.59518 12.8148 1.39566C13.0485 1.19614 13.3457 1.08655 13.6529 1.0866H13.6732C14.0114 1.09321 14.3336 1.23186 14.571 1.47292C14.8083 1.71399 14.942 2.03834 14.9434 2.37665V2.3969C14.9388 2.66113 14.8535 2.91765 14.6989 3.13197C14.5443 3.3463 14.3278 3.50817 14.0785 3.59585C14.0262 3.61405 13.9805 3.64748 13.9473 3.69185C13.9141 3.73622 13.895 3.7895 13.8923 3.84485L13.8483 4.72749C13.8445 4.80103 13.8702 4.87305 13.9195 4.92771C13.9688 4.98237 14.0379 5.0152 14.1114 5.019C14.632 5.04734 15.1492 5.12015 15.6574 5.23662C15.6305 5.28593 15.6062 5.33661 15.5846 5.38845C15.5739 5.41427 15.5638 5.43906 15.5542 5.46639C15.4657 5.71806 15.4413 5.98779 15.4831 6.25125C15.5249 6.51472 15.6316 6.76365 15.7936 6.97558L15.4292 8.04244C14.2624 7.70417 13.0233 7.70575 11.8574 8.047L11.495 6.98014C11.723 6.69677 11.848 6.34431 11.8493 5.98059C11.8496 5.80182 11.8193 5.62433 11.7597 5.45577C11.7506 5.42793 11.74 5.40009 11.7278 5.37175C11.7071 5.32094 11.6836 5.27127 11.6575 5.22296C12.172 5.10917 12.6953 5.04008 13.2217 5.01647C13.2584 5.01485 13.2943 5.00601 13.3275 4.99047C13.3607 4.97493 13.3904 4.95298 13.4151 4.9259C13.4398 4.89881 13.4589 4.86712 13.4713 4.83264C13.4837 4.79815 13.4892 4.76156 13.4874 4.72496L13.4459 3.86003ZM6.87719 7.58594L6.15858 6.92801C6.11859 6.89058 6.06843 6.86581 6.01441 6.85681C5.96038 6.8478 5.9049 6.85497 5.85494 6.8774L5.81951 6.89258C5.50696 7.01648 5.1586 7.01466 4.84736 6.88752C4.60594 6.78795 4.40042 6.61745 4.25798 6.39855C4.11554 6.17965 4.04289 5.92268 4.04963 5.6616C4.05637 5.40052 4.14219 5.14764 4.29574 4.93639C4.44929 4.72514 4.66334 4.56547 4.90958 4.4785C5.15582 4.39152 5.42266 4.38134 5.67481 4.4493C5.92696 4.51725 6.15255 4.66014 6.32175 4.85908C6.49095 5.05801 6.59579 5.30362 6.62241 5.56343C6.64903 5.82323 6.59617 6.085 6.47082 6.31411C6.44296 6.36477 6.43159 6.42286 6.4383 6.48028C6.44502 6.53771 6.46947 6.59161 6.50827 6.63447L7.13377 7.32834C7.15817 7.35551 7.1877 7.37761 7.22065 7.39337C7.25361 7.40912 7.28934 7.41822 7.32582 7.42015C7.36229 7.42208 7.39879 7.41679 7.43322 7.4046C7.46765 7.39241 7.49934 7.37354 7.52647 7.34909C7.90038 7.01321 8.30118 6.70853 8.72484 6.43811C8.74009 6.48967 8.75816 6.54036 8.77899 6.58994C8.79265 6.62385 8.8053 6.65168 8.81644 6.67344C8.93062 6.91043 9.10172 7.11544 9.31445 7.27017C9.52718 7.4249 9.77493 7.52452 10.0356 7.56013L10.5507 8.59511C9.49537 9.18835 8.62884 10.0674 8.05076 11.1312L7.03863 10.6413C7.01034 10.3695 6.913 10.1095 6.75586 9.88602C6.59872 9.66252 6.387 9.48294 6.14086 9.36438C6.11607 9.35173 6.09026 9.33958 6.05585 9.32591C6.00524 9.30567 5.95463 9.28796 5.90403 9.27227C6.19468 8.81279 6.5256 8.38006 6.89288 7.97918C6.9177 7.95225 6.93696 7.92067 6.94954 7.88627C6.96211 7.85187 6.96777 7.81532 6.96617 7.77873C6.96457 7.74214 6.95575 7.70622 6.94022 7.67305C6.92469 7.63987 6.90275 7.6101 6.87567 7.58544L6.87719 7.58594ZM3.31094 14.3125C3.25626 14.3148 3.20346 14.3331 3.15916 14.3653C3.11487 14.3974 3.08105 14.4419 3.06196 14.4932C2.99637 14.6685 2.89385 14.8276 2.76135 14.9598C2.64172 15.0793 2.49967 15.174 2.34335 15.2385C2.18703 15.3029 2.01952 15.3358 1.85044 15.3353H1.84335C1.5011 15.3345 1.17318 15.1978 0.93174 14.9552C0.6903 14.7126 0.555112 14.384 0.555918 14.0418C0.556723 13.6995 0.693455 13.3715 0.936034 13.1301C1.17861 12.8886 1.50717 12.7534 1.84942 12.7542H1.85651C2.13185 12.7543 2.39987 12.8429 2.62102 13.0069C2.84218 13.1709 3.00474 13.4017 3.08473 13.6652C3.10125 13.7198 3.13415 13.7679 3.17896 13.8031C3.22377 13.8383 3.27833 13.8589 3.33523 13.8621L4.21275 13.9127C4.24933 13.9148 4.28597 13.9097 4.32055 13.8976C4.35514 13.8855 4.38699 13.8667 4.41427 13.8422C4.44155 13.8177 4.46372 13.7881 4.47951 13.7551C4.4953 13.722 4.5044 13.6861 4.50627 13.6495C4.53261 13.164 4.5976 12.6813 4.7006 12.2061C4.74991 12.2323 4.80059 12.2558 4.85242 12.2765C4.87722 12.2866 4.90303 12.2962 4.92782 12.3053H4.93339C5.1647 12.3853 5.41131 12.4109 5.65413 12.3803C5.89695 12.3497 6.12946 12.2636 6.33368 12.1287C6.35999 12.1115 6.38428 12.0933 6.41009 12.0751L7.51787 12.4384C7.1919 13.6047 7.20472 14.8396 7.55481 15.9988L6.51232 16.3708C6.22638 16.1379 5.86895 16.0107 5.50018 16.0105C5.31726 16.0104 5.13572 16.0423 4.96375 16.1046C4.93541 16.1147 4.90657 16.1254 4.88025 16.137C4.82979 16.1584 4.78047 16.1824 4.73248 16.2089C4.60503 15.6613 4.52896 15.103 4.50526 14.5413C4.5021 14.4675 4.4698 14.3979 4.41543 14.3479C4.36107 14.2979 4.28908 14.2715 4.21528 14.2746L3.31094 14.3125ZM8.92828 21.6803C8.91461 21.7082 8.90247 21.7365 8.89032 21.7669C8.87078 21.8165 8.85388 21.8672 8.83972 21.9187C8.34389 21.6121 7.8784 21.2589 7.44955 20.864C7.39541 20.814 7.32367 20.7876 7.25006 20.7904C7.17645 20.7933 7.10697 20.8252 7.05684 20.8792L6.53256 21.445C6.49494 21.4855 6.47026 21.5364 6.4617 21.591C6.45313 21.6456 6.46107 21.7016 6.48448 21.7517C6.56342 21.9227 6.60434 22.1089 6.60442 22.2973C6.60446 22.554 6.52797 22.8049 6.38473 23.0179C6.2415 23.2309 6.03802 23.3964 5.80028 23.4932C5.4886 23.6189 5.14031 23.6189 4.82863 23.4932C4.66644 23.427 4.51941 23.3286 4.3965 23.2038C4.27358 23.079 4.17735 22.9305 4.11368 22.7673C4.05 22.6041 4.0202 22.4297 4.02611 22.2546C4.03201 22.0796 4.07349 21.9075 4.14801 21.749C4.22254 21.5905 4.32855 21.4488 4.45959 21.3326C4.59064 21.2164 4.74397 21.128 4.91024 21.073C5.07652 21.0179 5.25227 20.9973 5.42677 21.0124C5.60128 21.0274 5.77089 21.0778 5.92528 21.1606C5.97556 21.1877 6.03299 21.1988 6.08976 21.1921C6.14653 21.1855 6.19989 21.1616 6.24258 21.1236L6.80229 20.6246C6.82961 20.6002 6.85185 20.5707 6.86775 20.5377C6.88365 20.5047 6.8929 20.4689 6.89497 20.4323C6.89704 20.3958 6.89188 20.3592 6.8798 20.3246C6.86772 20.29 6.84895 20.2582 6.82456 20.2309C6.51394 19.8849 6.23022 19.5157 5.97589 19.1265C6.02649 19.1104 6.0771 19.0916 6.12771 19.0699C6.15503 19.0577 6.18287 19.0451 6.20817 19.0324C6.44001 18.918 6.64051 18.7489 6.79235 18.5397C6.94418 18.3304 7.04278 18.0873 7.07962 17.8314L8.11199 17.3021C8.7133 18.3532 9.59869 19.2136 10.6666 19.7845L10.2026 20.7693C9.92949 20.7988 9.6686 20.898 9.44505 21.0576C9.2215 21.2172 9.04283 21.4316 8.92625 21.6803H8.92828ZM13.7288 24.1354C13.731 24.193 13.7509 24.2484 13.7858 24.2943C13.8206 24.3401 13.8688 24.3741 13.9237 24.3915C14.1846 24.473 14.4128 24.6355 14.5751 24.8555C14.7374 25.0754 14.8255 25.3414 14.8265 25.6147V25.6223C14.8258 25.9633 14.6906 26.2903 14.4501 26.532C14.2097 26.7738 13.8835 26.9109 13.5426 26.9134H13.5365C13.1956 26.9138 12.8683 26.7794 12.6261 26.5394C12.3838 26.2994 12.2463 25.9734 12.2435 25.6325V25.6239C12.2435 25.3534 12.3284 25.0897 12.4863 24.8701C12.6442 24.6506 12.8671 24.4861 13.1236 24.4001C13.176 24.3825 13.2221 24.3497 13.2558 24.3057C13.2895 24.2618 13.3094 24.2089 13.3128 24.1536L13.3493 23.563C13.3516 23.5264 13.3467 23.4898 13.3348 23.4551C13.3228 23.4204 13.3042 23.3884 13.2799 23.361C13.2556 23.3336 13.226 23.3113 13.1931 23.2953C13.1601 23.2793 13.1242 23.27 13.0876 23.268C12.6488 23.2422 12.2124 23.1845 11.782 23.0954C11.8078 23.0448 11.8326 22.9942 11.8528 22.9436C11.863 22.9167 11.8731 22.8899 11.8817 22.8626C11.9647 22.617 11.9865 22.3548 11.945 22.0989C11.9036 21.843 11.8002 21.6012 11.6438 21.3944L11.9869 20.3058C13.1598 20.6231 14.3988 20.5986 15.5583 20.2354L15.9277 21.2436C15.7557 21.4587 15.6423 21.7147 15.5987 21.9866C15.5551 22.2585 15.5826 22.5371 15.6787 22.7953C15.6888 22.8231 15.7005 22.8514 15.7126 22.8783C15.7349 22.9289 15.7592 22.9795 15.786 23.0255C15.1929 23.1696 14.5867 23.2535 13.9768 23.2761C13.9031 23.279 13.8336 23.3109 13.7834 23.3648C13.7331 23.4187 13.7063 23.4904 13.7086 23.564L13.7288 24.1354ZM20.4595 20.6297L20.915 21.0386C20.956 21.0753 21.007 21.0989 21.0615 21.1067C21.1159 21.1144 21.1715 21.1059 21.2211 21.0821C21.4947 20.9509 21.8058 20.9203 22.0997 20.9956C22.3936 21.071 22.6515 21.2475 22.8282 21.4942C23.0049 21.7409 23.0891 22.0419 23.0659 22.3444C23.0427 22.647 22.9136 22.9317 22.7014 23.1485C22.5794 23.2738 22.433 23.3727 22.2712 23.439C21.9603 23.5658 21.6124 23.5678 21.3001 23.4446C20.9917 23.3204 20.7429 23.0823 20.6053 22.7797C20.4676 22.4771 20.4517 22.1331 20.5607 21.819C20.5771 21.7725 20.5807 21.7224 20.5713 21.6741C20.5618 21.6257 20.5397 21.5807 20.5071 21.5437L20.0557 21.031C20.0069 20.9756 19.9382 20.9418 19.8645 20.937C19.7909 20.9323 19.7184 20.957 19.663 21.0057C19.3559 21.2757 19.0313 21.5251 18.6913 21.7522C18.6748 21.7006 18.6558 21.65 18.6341 21.6004C18.6215 21.571 18.6083 21.5422 18.5952 21.5169C18.4781 21.2853 18.3063 21.0859 18.0946 20.9359C17.883 20.786 17.6378 20.6901 17.3806 20.6565L16.8528 19.6605C17.9028 19.0454 18.7568 18.1452 19.3158 17.0642L20.2895 17.508C20.3217 17.7817 20.4241 18.0424 20.5867 18.2649C20.7493 18.4874 20.9666 18.6641 21.2176 18.7778L21.2991 18.8118C21.3488 18.8312 21.3994 18.8481 21.4509 18.8624C21.1553 19.351 20.8147 19.811 20.4337 20.2364C20.4093 20.2636 20.3904 20.2953 20.3783 20.3298C20.3661 20.3642 20.3609 20.4007 20.3629 20.4372C20.3649 20.4737 20.374 20.5094 20.3898 20.5423C20.4056 20.5753 20.4277 20.6048 20.4549 20.6292L20.4595 20.6297ZM22.8436 17.6988C22.7695 17.8905 22.6402 18.0558 22.4721 18.1739C22.304 18.2921 22.1047 18.3576 21.8993 18.3623H21.8826C21.753 18.3628 21.6245 18.3393 21.5035 18.293C21.4843 18.2854 21.4646 18.2773 21.4479 18.2697C21.2662 18.1873 21.1121 18.0543 21.0039 17.8867C20.8958 17.7191 20.8382 17.5238 20.838 17.3243C20.838 17.271 20.8226 17.2187 20.7937 17.1739C20.7648 17.129 20.7236 17.0934 20.6751 17.0713L19.3026 16.4452C19.2357 16.4146 19.1594 16.4119 19.0904 16.4375C19.0215 16.4631 18.9655 16.515 18.9347 16.5819C18.3947 17.7485 17.4868 18.7056 16.3502 19.3062C16.2849 19.3407 16.236 19.3998 16.2141 19.4704C16.1923 19.541 16.1994 19.6174 16.2339 19.6828L16.9575 21.0538C16.9806 21.0974 17.0148 21.1341 17.0567 21.1601C17.0986 21.1862 17.1466 21.2006 17.1959 21.2021C17.3834 21.207 17.5661 21.2627 17.7244 21.3632C17.8828 21.4637 18.0109 21.6053 18.0952 21.7729C18.1043 21.7891 18.1119 21.8063 18.1195 21.8236C18.1739 21.9475 18.2033 22.081 18.206 22.2163C18.206 22.2193 18.206 22.2224 18.206 22.2254V22.2386C18.2061 22.4379 18.1489 22.633 18.0412 22.8007C17.9336 22.9684 17.78 23.1016 17.5987 23.1845L17.5856 23.1895C17.455 23.2474 17.3138 23.2772 17.1711 23.2771C16.972 23.277 16.777 23.2199 16.6094 23.1126C16.5528 23.076 16.4997 23.0341 16.451 22.9876C16.3527 22.8926 16.2739 22.7793 16.2192 22.6541C16.2121 22.6379 16.2055 22.6217 16.1984 22.6035C16.1286 22.4163 16.1142 22.2131 16.1571 22.018C16.1999 21.8229 16.2981 21.6444 16.4398 21.5037C16.4777 21.4662 16.5039 21.4185 16.5155 21.3665C16.5271 21.3145 16.5235 21.2602 16.5051 21.2102L15.9849 19.79C15.9595 19.7213 15.9081 19.6654 15.8418 19.6343C15.7755 19.6032 15.6996 19.5995 15.6306 19.624C14.4246 20.0608 13.108 20.0866 11.8857 19.6974C11.8508 19.6864 11.8141 19.6823 11.7776 19.6854C11.7412 19.6885 11.7057 19.6989 11.6732 19.7157C11.6407 19.7326 11.6119 19.7557 11.5883 19.7838C11.5648 19.8118 11.547 19.8442 11.536 19.8791L11.0644 21.3736C11.0497 21.4207 11.0478 21.4708 11.0587 21.5189C11.0696 21.567 11.0931 21.6113 11.1266 21.6474C11.2548 21.7838 11.3435 21.9523 11.3833 22.1351C11.4232 22.318 11.4126 22.5082 11.3528 22.6854C11.3528 22.6854 11.3528 22.6895 11.3528 22.692C11.3478 22.7082 11.3412 22.7244 11.3356 22.7391C11.2853 22.8664 11.2101 22.9823 11.1145 23.0802C11.0178 23.1796 10.9021 23.2586 10.7743 23.3125C10.6466 23.3664 10.5093 23.3941 10.3706 23.394C10.2448 23.3941 10.1201 23.3711 10.0027 23.3262C9.99813 23.3237 9.99338 23.3217 9.98849 23.3201C9.79719 23.2448 9.63272 23.1142 9.51614 22.9448C9.39957 22.7755 9.33619 22.5752 9.33414 22.3696C9.33414 22.3626 9.33414 22.3555 9.33414 22.3489C9.33431 22.3512 9.33431 22.3536 9.33414 22.356C9.33413 22.2255 9.35886 22.0962 9.40702 21.9749C9.4141 21.9572 9.42119 21.9405 9.42928 21.9243L9.43181 21.9187C9.51529 21.7402 9.64774 21.5891 9.81375 21.4829C9.97976 21.3767 10.1725 21.3199 10.3696 21.319C10.4253 21.3226 10.4808 21.3093 10.5288 21.2809C10.5768 21.2524 10.6152 21.2101 10.6388 21.1595L11.2896 19.7764C11.3003 19.7532 11.3079 19.7287 11.3124 19.7035C11.3222 19.6439 11.3124 19.5827 11.2845 19.5291C11.2566 19.4755 11.212 19.4325 11.1575 19.4064C10.0048 18.8535 9.06415 17.9394 8.47838 16.803C8.44475 16.7373 8.38641 16.6877 8.31618 16.665C8.24596 16.6423 8.1696 16.6485 8.1039 16.6821L6.69349 17.4058C6.64076 17.433 6.59804 17.4762 6.57153 17.5293C6.554 17.5648 6.54401 17.6036 6.54218 17.6432C6.53527 17.8299 6.47794 18.0113 6.37628 18.1682C6.27462 18.325 6.13242 18.4514 5.96475 18.5339C5.94704 18.543 5.92832 18.5516 5.91415 18.5587C5.78986 18.612 5.65618 18.6401 5.52093 18.6412H5.50626C5.26686 18.6413 5.03477 18.5587 4.84935 18.4072C4.66394 18.2558 4.5366 18.0449 4.48894 17.8102C4.44128 17.5756 4.47623 17.3317 4.58785 17.1199C4.69948 16.9081 4.88092 16.7415 5.1014 16.6482C5.1176 16.6411 5.1348 16.6345 5.15201 16.6279C5.26447 16.5865 5.38339 16.5655 5.50322 16.5657C5.64222 16.5659 5.77978 16.5938 5.9078 16.648C6.03582 16.7021 6.15171 16.7814 6.24866 16.881C6.28561 16.9194 6.33287 16.9463 6.38476 16.9585C6.43665 16.9708 6.49096 16.9677 6.54116 16.9498L7.99712 16.4356C8.03154 16.4235 8.06325 16.4048 8.09043 16.3804C8.11761 16.3561 8.13972 16.3266 8.15551 16.2937C8.1713 16.2608 8.18046 16.2251 8.18245 16.1887C8.18445 16.1522 8.17925 16.1158 8.16715 16.0813C7.74417 14.8753 7.73065 13.5634 8.12869 12.3489C8.15158 12.2786 8.14574 12.2022 8.11245 12.1363C8.07917 12.0704 8.02114 12.0204 7.95106 11.9971L6.43793 11.5006C6.3903 11.485 6.33935 11.4826 6.29045 11.4935C6.24155 11.5045 6.19651 11.5285 6.1601 11.5629C5.96872 11.7412 5.71669 11.84 5.45514 11.8392C5.34062 11.8393 5.22688 11.8203 5.11861 11.783L5.06294 11.7623C4.80845 11.6579 4.60572 11.4569 4.49918 11.2034C4.39265 10.9498 4.39101 10.6643 4.49463 10.4095C4.59873 10.1552 4.7995 9.95259 5.05285 9.84621C5.3062 9.73984 5.5914 9.73837 5.84583 9.84214C5.86303 9.84922 5.88024 9.85681 5.89643 9.86491L5.90149 9.86744C6.07791 9.95231 6.22686 10.0851 6.33131 10.2507C6.43575 10.4163 6.49147 10.608 6.49207 10.8037C6.48889 10.8587 6.50204 10.9134 6.52986 10.961C6.55768 11.0085 6.59894 11.0468 6.64845 11.0709L8.05076 11.7506C8.11722 11.7827 8.19368 11.7872 8.2634 11.763C8.33313 11.7388 8.39042 11.6879 8.42272 11.6216C8.98418 10.4732 9.90562 9.53974 11.0467 8.96355C11.1125 8.93054 11.1625 8.87279 11.1857 8.80295C11.209 8.73311 11.2035 8.65691 11.1707 8.59106L10.4647 7.17398C10.4419 7.12925 10.4074 7.09153 10.3649 7.0648C10.3224 7.03807 10.2735 7.02333 10.2233 7.02215C10.0321 7.0165 9.84616 6.95812 9.68603 6.85345C9.52591 6.74878 9.39783 6.60188 9.31592 6.429C9.30783 6.4128 9.30024 6.39559 9.29315 6.37839C9.22806 6.2208 9.2028 6.0496 9.21958 5.87993C9.23636 5.71026 9.29468 5.54733 9.38937 5.40555C9.48407 5.26377 9.61223 5.1475 9.76254 5.06702C9.91284 4.98654 10.0806 4.94432 10.2511 4.9441C10.5267 4.94441 10.791 5.05355 10.9864 5.24776C11.0832 5.3441 11.1596 5.45889 11.2111 5.58533C11.2182 5.6008 11.2243 5.61669 11.2294 5.6329V5.63746C11.2689 5.74754 11.2893 5.86361 11.2896 5.98059C11.29 6.25689 11.1808 6.52208 10.9859 6.71798C10.949 6.75481 10.923 6.80124 10.911 6.85204C10.899 6.90283 10.9015 6.95597 10.9181 7.00544L11.4201 8.48427C11.4319 8.51902 11.4504 8.5511 11.4746 8.57866C11.4988 8.60622 11.5282 8.62872 11.5611 8.64486C11.594 8.66099 11.6299 8.67045 11.6665 8.67268C11.7031 8.67492 11.7397 8.66988 11.7744 8.65786C12.9882 8.24433 14.3045 8.24273 15.5193 8.65331C15.5539 8.66525 15.5906 8.67024 15.6272 8.66797C15.6638 8.66571 15.6996 8.65624 15.7325 8.64011C15.7654 8.62398 15.7948 8.60151 15.819 8.57398C15.8432 8.54646 15.8617 8.51442 15.8735 8.47971L16.3771 7.00494C16.3935 6.95644 16.3963 6.90435 16.3852 6.85436C16.374 6.80438 16.3493 6.75843 16.3138 6.72152C16.1802 6.5823 16.0878 6.40871 16.0469 6.22008C16.0061 6.03145 16.0184 5.83518 16.0825 5.65314C16.0896 5.63391 16.0967 5.61519 16.1038 5.59849C16.1559 5.47259 16.2328 5.35847 16.33 5.26294C16.5249 5.07135 16.787 4.96363 17.0603 4.96282C17.3354 4.96309 17.5993 5.07264 17.7937 5.26739C17.9882 5.46213 18.0973 5.72613 18.0972 6.00134V6.00944C18.0959 6.1449 18.0682 6.27881 18.0157 6.40369C18.0094 6.41939 18.0023 6.43476 17.9945 6.44975L17.9904 6.45734C17.9058 6.63056 17.7745 6.77673 17.6114 6.87937C17.4482 6.98202 17.2596 7.03708 17.0668 7.03834C17.0157 7.03857 16.9656 7.05286 16.9221 7.07964C16.8785 7.10642 16.8432 7.14465 16.8199 7.19017L16.1225 8.58296C16.1062 8.61566 16.0964 8.65126 16.0938 8.68773C16.0912 8.72419 16.0958 8.76082 16.1074 8.7955C16.119 8.83018 16.1372 8.86225 16.1612 8.88987C16.1851 8.91749 16.2143 8.94011 16.247 8.95646C17.3933 9.53392 18.3185 10.4716 18.8806 11.6256C18.9128 11.692 18.97 11.7428 19.0396 11.767C19.1093 11.7912 19.1856 11.7868 19.252 11.7547L20.6331 11.0871C20.6799 11.0646 20.7194 11.0295 20.7472 10.9856C20.775 10.9418 20.79 10.8911 20.7905 10.8392C20.7926 10.6438 20.8496 10.453 20.955 10.2885C21.0605 10.124 21.21 9.99247 21.3866 9.90894L21.3932 9.9059C21.4079 9.89882 21.4231 9.89173 21.4408 9.88465C21.5636 9.8349 21.6949 9.8093 21.8274 9.80924H21.836C22.0766 9.81073 22.3092 9.89582 22.494 10.05C22.6788 10.2041 22.8043 10.4177 22.849 10.6541C22.8937 10.8906 22.8547 11.1352 22.7389 11.3462C22.6231 11.5571 22.4375 11.7212 22.214 11.8104C22.1958 11.818 22.1771 11.8245 22.1634 11.8301C21.9827 11.8913 21.7886 11.9014 21.6024 11.8595C21.4163 11.8175 21.2453 11.725 21.1083 11.5922C21.0719 11.5568 21.0266 11.532 20.9772 11.5205C20.9278 11.509 20.8762 11.5112 20.8279 11.5269L19.3573 12.0067C19.2871 12.0297 19.2288 12.0795 19.1953 12.1454C19.1618 12.2112 19.1558 12.2877 19.1786 12.358C19.5468 13.4889 19.5597 14.7055 19.2156 15.844C19.2048 15.8789 19.2011 15.9157 19.2047 15.9521C19.2083 15.9885 19.219 16.0238 19.2363 16.056C19.2712 16.1213 19.3306 16.17 19.4013 16.1917L20.8866 16.6401C20.9337 16.6539 20.9836 16.6551 21.0313 16.6433C21.0789 16.6316 21.1226 16.6074 21.1579 16.5733C21.2928 16.4439 21.4601 16.3535 21.6423 16.3116C21.8244 16.2697 22.0144 16.278 22.1923 16.3354C22.2115 16.342 22.2312 16.3486 22.2484 16.3551C22.3757 16.404 22.492 16.4776 22.5905 16.5718C22.692 16.6689 22.7728 16.7856 22.8281 16.9147C22.8834 17.0439 22.9121 17.1828 22.9124 17.3233C22.9123 17.4518 22.8881 17.5792 22.8411 17.6988H22.8436ZM26.386 14.1738V14.1946C26.3755 14.5288 26.2349 14.8458 25.9941 15.0779C25.7533 15.3099 25.4315 15.4388 25.0971 15.4371H25.0637C24.7938 15.4305 24.5328 15.3394 24.3174 15.1766C24.1021 15.0138 23.9432 14.7875 23.8633 14.5296C23.8464 14.4749 23.8131 14.4268 23.7678 14.3918C23.7225 14.3569 23.6674 14.3368 23.6103 14.3343L23.0536 14.3095C22.98 14.3063 22.9082 14.3325 22.8538 14.3822C22.7995 14.4319 22.767 14.5011 22.7636 14.5747C22.7428 15.0224 22.689 15.4679 22.6027 15.9077C22.5532 15.8826 22.5026 15.86 22.4509 15.8399C22.4251 15.8298 22.4003 15.8202 22.3704 15.8111C22.1237 15.7305 21.861 15.7114 21.6052 15.7555C21.3494 15.7996 21.1083 15.9055 20.9028 16.0641L19.8244 15.7382C20.0994 14.6587 20.0876 13.5261 19.79 12.4526L20.8527 12.1059C20.8841 12.1307 20.917 12.154 20.9504 12.1763C21.1539 12.3119 21.3859 12.3987 21.6284 12.43C21.871 12.4612 22.1174 12.4361 22.3486 12.3564C22.3755 12.3468 22.4023 12.3372 22.4276 12.3271C22.4782 12.3063 22.5288 12.2831 22.5769 12.2578C22.6762 12.7282 22.7383 13.2058 22.7626 13.686C22.7645 13.7225 22.7735 13.7583 22.7893 13.7913C22.805 13.8243 22.8271 13.8539 22.8542 13.8784C22.8814 13.9029 22.9131 13.9218 22.9476 13.934C22.9821 13.9462 23.0186 13.9516 23.0551 13.9496L23.6275 13.9198C23.6831 13.9169 23.7366 13.8974 23.781 13.8637C23.8254 13.8301 23.8587 13.7838 23.8765 13.731C23.9627 13.4755 24.1269 13.2536 24.346 13.0965C24.5651 12.9394 24.828 12.8551 25.0976 12.8555H25.1315C25.4662 12.8671 25.7833 13.0077 26.0167 13.2478C26.2501 13.488 26.3815 13.8091 26.3835 14.144C26.3835 14.1536 26.3835 14.1637 26.383 14.1738H26.386Z" fill="#D1191A"/>
</svg>
