<svg width="23" height="25" viewBox="0 0 23 25" fill="none" xmlns="http://www.w3.org/2000/svg">
<path d="M12.7397 7.29118C13.6827 6.48592 14.7407 4.97311 14.755 5.11509C15.3398 4.7684 15.3052 4.55925 15.4169 4.04537C15.6758 2.48996 15.5737 2.94217 14.6733 2.09772C14.1086 1.0725 12.8663 1.16405 11.9411 0.983923C11.6572 0.840885 12.7699 0.676867 12.254 0.517724C11.9531 0.425967 10.1585 0.784093 9.81387 0.649955C9.45339 0.509671 10.638 0.108104 10.2571 0.0116857C9.43397 -0.0836733 8.75291 0.496957 7.96568 0.429782C6.77873 0.902974 5.14814 1.75442 4.50591 2.80189C4.43605 2.97311 4.18743 2.9409 4.16717 2.75718C4.07684 2.23715 3.85988 1.66415 3.72924 1.10874C3.56272 0.400114 2.88862 -0.067992 2.16746 0.00808321C1.23883 0.105985 0.223248 0.464535 0.239077 0.495473C-0.302905 1.26068 0.202987 2.08098 0.515344 2.86885C2.61383 7.52618 3.90441 12.7237 5.99573 17.3162C6.58509 18.6058 7.09559 19.9304 7.52438 21.2825C8.4473 24.2068 11.4394 26.4248 13.5738 23.8966C13.9325 23.4706 14.1997 22.9748 14.3852 22.4486C16.8953 15.3354 20.1223 7.98603 22.9364 1.16426C23.1528 0.639783 22.7923 0.050465 22.2277 0.0199501C21.8974 0.00151404 21.5452 0.00999039 21.2434 0.0199501C21.0359 0.0271084 20.8342 0.090436 20.6595 0.203236C20.4849 0.316037 20.3439 0.474118 20.2514 0.660762C19.22 2.72793 18.4756 5.25918 18.3963 7.44968C17.2805 8.72241 16.6895 14.0475 15.0756 13.5669C15.1461 13.2397 15.8185 12.8676 15.396 12.6116C14.8656 12.4647 14.5431 13.4427 13.8829 13.3922C12.7954 13.2763 14.8749 12.5815 15.1617 12.068C15.9519 10.3492 14.0138 12.4707 13.4117 12.513C6.53138 15.6052 2.48425 4.18883 10.0431 3.12547C10.8978 2.73365 14.5148 2.58532 12.6553 4.39989C11.8923 5.99345 12.1219 6.36768 10.2704 6.4766C8.47643 6.70419 8.46546 9.73787 10.2661 9.91122C11.4436 10.1784 12.5385 9.18628 12.4474 8.24328C12.5913 7.76543 12.3161 7.52894 12.7397 7.29118ZM13.7082 16.4772C12.8864 18.0729 11.6171 22.3835 10.4369 20.4113C6.19749 13.3272 9.69715 16.8921 13.597 15.7266C14.2599 15.5285 13.8027 16.2958 13.7082 16.4772Z" fill="white"/>
</svg>
