<svg width="20" height="20" viewBox="0 0 20 20" fill="none" xmlns="http://www.w3.org/2000/svg">
<path d="M14.511 1H5.26904C2.91132 1 1 2.91132 1 5.26904V14.511C1 16.8687 2.91132 18.78 5.26904 18.78H14.511C16.8687 18.78 18.78 16.8687 18.78 14.511V5.26904C18.78 2.91132 16.8687 1 14.511 1Z" stroke="white" stroke-linecap="round" stroke-linejoin="round"/>
<path d="M9.89003 13.9685C12.1425 13.9685 13.9685 12.1425 13.9685 9.89003C13.9685 7.63753 12.1425 5.81152 9.89003 5.81152C7.63753 5.81152 5.81152 7.63753 5.81152 9.89003C5.81152 12.1425 7.63753 13.9685 9.89003 13.9685Z" stroke="white" stroke-linecap="round" stroke-linejoin="round"/>
<path d="M15.151 5.81233C15.8041 5.81233 16.3336 5.28289 16.3336 4.6298C16.3336 3.9767 15.8041 3.44727 15.151 3.44727C14.4979 3.44727 13.9685 3.9767 13.9685 4.6298C13.9685 5.28289 14.4979 5.81233 15.151 5.81233Z" fill="white"/>
</svg>
