<svg width="25" height="15" viewBox="0 0 25 15" fill="none" xmlns="http://www.w3.org/2000/svg">
<path d="M3.00353 1.00268H1.69298C1.69298 1.00268 0.820634 1.03039 1.03345 1.927C1.24626 2.82361 4.68942 14.0397 12.5065 14.3526C12.5065 14.3526 13.6904 14.3597 13.9683 14.1944C14.2462 14.029 14.4496 13.9485 14.4496 13.4587V11.1461C14.4496 11.1461 14.4254 10.5847 14.6642 10.4367C14.9031 10.2888 15.4557 10.3192 15.889 10.59C16.3223 10.8609 17.4402 11.6355 19.1948 13.5972C19.3698 13.8314 19.5973 14.0218 19.8592 14.1531C20.121 14.2845 20.4101 14.3532 20.7033 14.3539H23.0896C23.0896 14.3539 24.5241 14.4393 23.7918 12.9598C23.0595 11.4804 20.3796 8.95818 20.3796 8.95818C20.3796 8.95818 19.4413 8.49647 20.1767 7.44834C20.9121 6.40021 23.3069 2.97871 23.5166 1.77191C23.5166 1.77191 23.746 1.00447 22.7533 1.00447H20.1587C20.1587 1.00447 19.4978 0.897645 19.0524 1.83895C18.6071 2.78026 16.804 6.25763 15.6165 7.10329C14.4289 7.94894 14.4658 6.9987 14.4658 6.9987L14.4478 1.84387C14.4478 1.84387 14.5771 1.00268 13.6325 1.00268H9.78793C9.78793 1.00268 8.64171 1.15688 9.3879 2.08299C10.1341 3.0091 10.1471 3.96471 10.1471 3.96471L10.144 7.7639C10.144 7.7639 10.2077 9.56516 8.56134 7.67808C6.91497 5.791 5.41136 1.6776 5.41136 1.6776C5.41136 1.6776 5.31843 1 4.21441 1C3.11039 1 3.00353 1.00268 3.00353 1.00268Z" stroke="white" stroke-linecap="round" stroke-linejoin="round"/>
</svg>
