<svg width="27" height="25" viewBox="0 0 27 25" fill="none" xmlns="http://www.w3.org/2000/svg">
<path d="M19.4047 1H6.81531C3.6036 1 1 3.46582 1 6.50756V18.4307C1 21.4724 3.6036 23.9382 6.81531 23.9382H19.4047C22.6164 23.9382 25.22 21.4724 25.22 18.4307V6.50756C25.22 3.46582 22.6164 1 19.4047 1Z" stroke="white" stroke-width="2" stroke-linecap="round" stroke-linejoin="round"/>
<path d="M13.11 17.7309C16.1784 17.7309 18.6658 15.3751 18.6658 12.4691C18.6658 9.56316 16.1784 7.2074 13.11 7.2074C10.0416 7.2074 7.55423 9.56316 7.55423 12.4691C7.55423 15.3751 10.0416 17.7309 13.11 17.7309Z" stroke="white" stroke-width="2" stroke-linecap="round" stroke-linejoin="round"/>
<path d="M20.2766 7.20818C21.1663 7.20818 21.8875 6.52515 21.8875 5.68258C21.8875 4.84002 21.1663 4.15698 20.2766 4.15698C19.387 4.15698 18.6658 4.84002 18.6658 5.68258C18.6658 6.52515 19.387 7.20818 20.2766 7.20818Z" fill="white"/>
</svg>
