<svg width="140" height="139" viewBox="0 0 140 139" fill="none" xmlns="http://www.w3.org/2000/svg">
<g filter="url(#filter0_d)">
<ellipse cx="64.7142" cy="64.5" rx="44.5384" ry="44.5" fill="url(#paint0_linear)"/>
</g>
<path d="M61.0777 64.2571C61.0777 66.0816 60.5361 67.8652 59.5215 69.3822C58.5068 70.8991 57.0647 72.0814 55.3775 72.7794C53.6903 73.4774 51.8338 73.6598 50.0428 73.3034C48.2519 72.9471 46.6069 72.0681 45.316 70.7776C44.0251 69.4871 43.1462 67.8431 42.7906 66.0535C42.4349 64.2639 42.6185 62.4091 43.318 60.7237C44.0175 59.0383 45.2016 57.5981 46.7204 56.5852C48.2393 55.5722 50.0247 55.0321 51.8508 55.0331C54.2984 55.0344 56.6453 56.0068 58.3755 57.7365C60.1057 59.4662 61.0777 61.8116 61.0777 64.2571ZM61.0777 64.2571H69.4254M42.6138 64.2571H37.3451M57.4071 64.2571C57.4071 62.7843 56.8219 61.3717 55.78 60.3298C54.7381 59.2879 53.3249 58.7018 51.8508 58.7005M84.2187 64.2571C84.2187 63.5274 84.0748 62.8048 83.7954 62.1307C83.5159 61.4565 83.1062 60.844 82.5898 60.328C82.0734 59.812 81.4603 59.4027 80.7856 59.1235C80.1108 58.8442 79.3877 58.7005 78.6573 58.7005M93.2387 64.1966H87.97M78.6573 55.0331C76.8314 55.0331 75.0465 55.5741 73.5283 56.5876C72.0102 57.6012 70.8269 59.0417 70.1281 60.7272C69.4294 62.4127 69.2466 64.2673 69.6028 66.0566C69.959 67.8459 70.8383 69.4894 72.1294 70.7794C73.4205 72.0694 75.0655 72.9479 76.8563 73.3038C78.6471 73.6597 80.5033 73.4771 82.1902 72.7789C83.8772 72.0808 85.319 70.8985 86.3334 69.3816C87.3478 67.8648 87.8893 66.0814 87.8893 64.2571C87.8893 61.8107 86.9166 59.4646 85.1853 57.7347C83.454 56.0049 81.1058 55.0331 78.6573 55.0331Z" stroke="white" stroke-width="2" stroke-linecap="round" stroke-linejoin="round"/>
<defs>
<filter id="filter0_d" x="0.175781" y="0" width="139.077" height="139" filterUnits="userSpaceOnUse" color-interpolation-filters="sRGB">
<feFlood flood-opacity="0" result="BackgroundImageFix"/>
<feColorMatrix in="SourceAlpha" type="matrix" values="0 0 0 0 0 0 0 0 0 0 0 0 0 0 0 0 0 0 127 0"/>
<feOffset dx="5" dy="5"/>
<feGaussianBlur stdDeviation="12.5"/>
<feColorMatrix type="matrix" values="0 0 0 0 0 0 0 0 0 0 0 0 0 0 0 0 0 0 0.1 0"/>
<feBlend mode="normal" in2="BackgroundImageFix" result="effect1_dropShadow"/>
<feBlend mode="normal" in="SourceGraphic" in2="effect1_dropShadow" result="shape"/>
</filter>
<linearGradient id="paint0_linear" x1="33.6874" y1="32.5" x2="94.687" y2="94.0526" gradientUnits="userSpaceOnUse">
<stop stop-color="#102CFC"/>
<stop offset="1" stop-color="#5B0DFD"/>
</linearGradient>
</defs>
</svg>
