<svg xmlns="http://www.w3.org/2000/svg" xmlns:xlink="http://www.w3.org/1999/xlink" viewBox="0 0 161.86 161.86"><defs><style>.cls-1{fill:url(#Безымянный_градиент_3);}</style><linearGradient id="Безымянный_градиент_3" x2="161.86" y2="161.86" gradientUnits="userSpaceOnUse"><stop offset="0" stop-color="#0034fc"/><stop offset="0.25" stop-color="#2226fd"/><stop offset="0.76" stop-color="#630bfe"/><stop offset="1" stop-color="#7c00ff"/></linearGradient></defs><g id="Слой_2" data-name="Слой 2"><g id="ready_logo" data-name="ready logo"><g id="colored"><path id="logo" class="cls-1" d="M91.75,40.25a9.73,9.73,0,1,0,18.15-4.89l6.5-6.5h45.46v29H131a9.73,9.73,0,1,0,0,5h30.85v99H137.92V115.3a2.51,2.51,0,0,0-.73-1.77L130,106.36a9.61,9.61,0,0,0,1.32-4.88,9.72,9.72,0,1,0-4.85,8.42l6.43,6.43v45.53H104V131a9.73,9.73,0,1,0-5,0v30.85H0V138H46.52a2.51,2.51,0,0,0,1.77-.73l7.2-7.2A9.69,9.69,0,1,0,52,126.5L45.49,133H0V104H30.85a9.73,9.73,0,1,0,0-5H0V0H23.89V46.52a2.5,2.5,0,0,0,.74,1.77l7.2,7.21A9.72,9.72,0,1,0,35.37,52l-6.48-6.47V0h29V30.85a9.74,9.74,0,1,0,5,0V0h99V23.86H115.37a2.53,2.53,0,0,0-1.77.73l-7.24,7.24a9.73,9.73,0,0,0-14.61,8.42Z"/></g></g></g></svg>