<svg width="54" height="58" viewBox="0 0 54 58" fill="none" xmlns="http://www.w3.org/2000/svg">
<path d="M29.9106 16.9014C32.1246 15.0348 34.6086 11.528 34.6423 11.8571C36.0153 11.0534 35.9341 10.5686 36.1962 9.37741C36.8042 5.77188 36.5644 6.82013 34.4505 4.86263C33.1245 2.48612 30.2079 2.69833 28.0356 2.28079C27.3691 1.94922 29.9815 1.56902 28.7704 1.20012C28.0638 0.987418 23.8505 1.81758 23.0413 1.50664C22.195 1.18145 24.9763 0.250592 24.0819 0.0270881C22.1494 -0.19396 20.5503 1.15198 18.7021 0.99626C15.9153 2.09315 12.087 4.06686 10.5791 6.49495C10.4151 6.89185 9.83139 6.81719 9.78382 6.3913C9.57174 5.18585 9.06235 3.8576 8.75562 2.57012C8.36466 0.92749 6.78199 -0.15761 5.08882 0.0187374C2.90856 0.24568 0.524148 1.07682 0.561311 1.14854C-0.711168 2.92232 0.476579 4.82383 1.20994 6.65017C6.13683 17.4461 9.1669 29.4942 14.0769 40.1399C15.4607 43.1295 16.6592 46.1999 17.666 49.334C19.8328 56.1128 26.8577 61.2544 31.8689 55.3937C32.7112 54.4063 33.3386 53.2569 33.7741 52.0372C39.6673 35.5485 47.2437 18.5121 53.8509 2.69882C54.3588 1.48306 53.5124 0.116981 52.1869 0.0462456C51.4114 0.00350963 50.5844 0.0231583 49.8758 0.0462456C49.3887 0.0628389 48.915 0.209636 48.5051 0.471115C48.0951 0.732593 47.7641 1.09903 47.5469 1.53169C45.1254 6.32351 43.3777 12.1911 43.1914 17.2688C40.5716 20.2191 39.1841 32.5629 35.3949 31.4488C35.5604 30.6904 37.1392 29.8278 36.1471 29.2344C34.9019 28.894 34.1448 31.1609 32.5948 31.044C30.0414 30.7753 34.9237 29.1646 35.5971 27.9744C37.4523 23.9901 32.902 28.9077 31.4883 29.006C15.3346 36.1738 5.83259 9.70997 23.5794 7.24504C25.5862 6.33678 34.0784 5.99292 29.7124 10.1992C27.9211 13.8932 28.4602 14.7607 24.1131 15.0131C19.9012 15.5407 19.8755 22.573 24.1032 22.9748C26.8676 23.5942 29.4384 21.2943 29.2243 19.1084C29.5623 18.0007 28.9161 17.4525 29.9106 16.9014ZM32.1845 38.1952C30.255 41.894 27.275 51.8864 24.504 47.3146C14.5507 30.8932 22.7673 39.157 31.9234 36.4553C33.4798 35.996 32.4065 37.7747 32.1845 38.1952Z" fill="white"/>
</svg>
