<svg width="460" height="90" viewBox="0 0 460 90" fill="none" xmlns="http://www.w3.org/2000/svg">
<path d="M50.885 22.3228C50.8861 23.1505 51.0777 23.9669 51.4448 24.7087C51.812 25.4505 52.3448 26.0979 53.0022 26.6009C53.6596 27.1038 54.4238 27.4488 55.2358 27.6092C56.0478 27.7695 56.8859 27.7409 57.6851 27.5256C58.4843 27.3103 59.2232 26.914 59.8448 26.3674C60.4663 25.8208 60.9538 25.1386 61.2696 24.3735C61.5853 23.6084 61.7208 22.7809 61.6655 21.955C61.6103 21.1292 61.3658 20.3271 60.951 19.6108L64.556 16.0059H89.7683V32.0894H72.6532C72.3166 30.8233 71.5309 29.7229 70.4426 28.9934C69.3544 28.264 68.0379 27.9554 66.7389 28.1251C65.4398 28.2948 64.2469 28.9314 63.3826 29.9159C62.5183 30.9005 62.0417 32.1658 62.0417 33.4759C62.0417 34.786 62.5183 36.0514 63.3826 37.0359C64.2469 38.0205 65.4398 38.657 66.7389 38.8267C68.0379 38.9965 69.3544 38.6878 70.4426 37.9584C71.5309 37.229 72.3166 36.1285 72.6532 34.8624H89.7627V89.7683H76.491V63.9459C76.4911 63.578 76.3455 63.2251 76.0862 62.9642L72.0986 58.9877C72.5798 58.1671 72.8326 57.2326 72.8307 56.2813C72.8297 55.0945 72.4371 53.9412 71.7138 53.0003C70.9905 52.0594 69.977 51.3835 68.8304 51.0774C67.6837 50.7712 66.4682 50.8521 65.3722 51.3073C64.2762 51.7625 63.361 52.5666 62.7687 53.595C62.1763 54.6234 61.9399 55.8185 62.096 56.995C62.2521 58.1714 62.7921 59.2635 63.6322 60.1017C64.4723 60.94 65.5656 61.4776 66.7424 61.6311C67.9192 61.7847 69.1137 61.5456 70.1408 60.951L73.7069 64.5171V89.7683H57.6789V72.6532C58.945 72.3166 60.0454 71.5309 60.7748 70.4426C61.5043 69.3544 61.8129 68.0379 61.6432 66.7389C61.4734 65.4398 60.8369 64.2469 59.8524 63.3826C58.8678 62.5183 57.6024 62.0417 56.2923 62.0417C54.9823 62.0417 53.7169 62.5183 52.7323 63.3826C51.7478 64.2469 51.1113 65.4398 50.9415 66.7389C50.7718 68.0379 51.0804 69.3544 51.8099 70.4426C52.5393 71.5309 53.6397 72.3166 54.9058 72.6532V89.7627H0V76.5354H25.8002C26.1681 76.5355 26.521 76.3899 26.7818 76.1305L30.775 72.1374C31.8963 72.8037 33.2217 73.0395 34.5041 72.8008C35.7864 72.562 36.9382 71.865 37.7446 70.8397C38.5509 69.8145 38.9569 68.5309 38.8867 67.2284C38.8166 65.9259 38.2751 64.6934 37.3633 63.7607C36.4515 62.8279 35.2315 62.2587 33.9309 62.159C32.6304 62.0594 31.338 62.4362 30.2947 63.2191C29.2514 64.002 28.5285 65.1377 28.2607 66.4143C27.993 67.6909 28.1987 69.0213 28.8394 70.1575L25.229 73.7624H0V57.6789H17.1095C17.4462 58.945 18.2319 60.0454 19.3201 60.7748C20.4083 61.5043 21.7248 61.8129 23.0238 61.6432C24.3229 61.4734 25.5158 60.8369 26.3801 59.8524C27.2444 58.8678 27.721 57.6024 27.721 56.2923C27.721 54.9823 27.2444 53.7169 26.3801 52.7323C25.5158 51.7478 24.3229 51.1113 23.0238 50.9415C21.7248 50.7718 20.4083 51.0804 19.3201 51.8099C18.2319 52.5393 17.4462 53.6397 17.1095 54.9058H0V0H13.2495V25.8002C13.2499 25.9828 13.2864 26.1635 13.3568 26.332C13.4272 26.5004 13.5302 26.6533 13.6599 26.7818L17.6531 30.7805C16.9888 31.9087 16.7579 33.24 17.0032 34.526C17.2486 35.8119 17.9535 36.9646 18.9865 37.769C20.0194 38.5733 21.3098 38.9742 22.6166 38.897C23.9235 38.8197 25.1576 38.2695 26.0886 37.349C27.0195 36.4286 27.5837 35.2008 27.6758 33.8949C27.768 32.589 27.3817 31.2942 26.5892 30.2522C25.7966 29.2102 24.652 28.4922 23.3689 28.2322C22.0858 27.9722 20.752 28.1881 19.6164 28.8394L16.0225 25.2511V0H32.106V17.1095C30.8384 17.4462 29.7366 18.2325 29.0061 19.3218C28.2756 20.4112 27.9664 21.729 28.1361 23.0296C28.3059 24.3301 28.943 25.5244 29.9286 26.3898C30.9142 27.2551 32.181 27.7323 33.4926 27.7323C34.8041 27.7323 36.0709 27.2551 37.0565 26.3898C38.0421 25.5244 38.6792 24.3301 38.849 23.0296C39.0187 21.729 38.7095 20.4112 37.979 19.3218C37.2485 18.2325 36.1467 17.4462 34.8791 17.1095V0H89.7849V13.2329H63.9847C63.6171 13.234 63.2646 13.3794 63.0031 13.6377L58.9877 17.6531C58.1674 17.1775 57.2363 16.9265 56.2882 16.9253C55.34 16.9241 54.4082 17.1727 53.5867 17.6462C52.7652 18.1196 52.083 18.8011 51.6087 19.6222C51.1343 20.4432 50.8847 21.3747 50.885 22.3228Z" fill="url(#paint0_linear)"/>
<path d="M123.987 35.8496V18.3297H128.424C129.135 18.3259 129.845 18.3909 130.543 18.5238C131.156 18.6408 131.74 18.8762 132.262 19.217C132.767 19.558 133.165 20.0348 133.41 20.5925C133.702 21.3157 133.838 22.0924 133.809 22.8719C133.824 23.4885 133.72 24.1021 133.504 24.6799C133.329 25.1438 133.03 25.5506 132.639 25.8557C132.231 26.1599 131.755 26.3615 131.253 26.4435C131.874 26.5188 132.465 26.756 132.966 27.1312C133.435 27.506 133.793 28.0004 134.004 28.5621C134.248 29.2488 134.364 29.9743 134.347 30.7029C134.363 31.4795 134.25 32.2533 134.015 32.9934C133.817 33.5981 133.478 34.1473 133.027 34.5962C132.573 35.0264 132.027 35.3486 131.43 35.539C130.711 35.7575 129.963 35.8623 129.212 35.8496H123.987ZM127.559 25.4009H128.446C128.929 25.4286 129.411 25.3372 129.85 25.1347C130.165 24.9541 130.401 24.6609 130.51 24.3139C130.641 23.8752 130.703 23.4185 130.693 22.9606C130.713 22.5155 130.62 22.0726 130.421 21.6739C130.242 21.3474 129.95 21.0971 129.6 20.9696C129.153 20.8123 128.681 20.739 128.208 20.7533H127.559V25.4009ZM127.559 33.3428H128.552C128.89 33.3803 129.233 33.3393 129.554 33.2229C129.874 33.1065 130.163 32.9179 130.399 32.6717C130.782 32.0736 130.961 31.3671 130.909 30.6585C130.931 30.094 130.851 29.5301 130.67 28.9947C130.536 28.6076 130.263 28.2838 129.905 28.0852C129.463 27.8708 128.976 27.7698 128.485 27.7912H127.559V33.3428Z" fill="black"/>
<path d="M141.768 36.0881C140.707 36.1413 139.652 35.9014 138.718 35.3949C137.972 34.9358 137.403 34.2381 137.104 33.4149C136.76 32.426 136.597 31.3835 136.621 30.3369V23.8036C136.597 22.7588 136.76 21.7181 137.104 20.7311C137.403 19.9165 137.973 19.2293 138.718 18.7845C139.679 18.3386 140.725 18.1077 141.785 18.1077C142.844 18.1077 143.891 18.3386 144.852 18.7845C145.599 19.2284 146.171 19.9157 146.471 20.7311C146.82 21.7129 146.986 22.7507 146.959 23.7925V30.3369C146.985 31.384 146.819 32.4271 146.471 33.4149C146.175 34.2413 145.603 34.9405 144.852 35.3949C143.905 35.901 142.84 36.1406 141.768 36.0881ZM141.768 33.5147C142.135 33.546 142.499 33.4325 142.783 33.1986C143.011 32.9695 143.163 32.6748 143.216 32.3556C143.289 31.9905 143.326 31.6189 143.326 31.2464V22.9384C143.327 22.5659 143.29 22.1943 143.216 21.8292C143.159 21.5146 143.008 21.2245 142.783 20.9973C142.499 20.7634 142.135 20.65 141.768 20.6812C141.414 20.6544 141.063 20.7679 140.792 20.9973C140.567 21.2245 140.416 21.5146 140.359 21.8292C140.287 22.1945 140.251 22.5661 140.254 22.9384V31.2242C140.254 31.596 140.286 31.967 140.348 32.3334C140.395 32.6522 140.543 32.9477 140.77 33.1764C141.045 33.4168 141.404 33.5384 141.768 33.5147Z" fill="black"/>
<path d="M148.634 35.8496V33.3206C149.006 33.3274 149.378 33.2939 149.743 33.2208C150.03 33.1629 150.285 33.0009 150.459 32.766C150.679 32.4297 150.83 32.0525 150.902 31.6568C151.039 30.9959 151.135 30.3273 151.191 29.6547C151.274 28.8172 151.352 27.7579 151.44 26.4713L152.023 18.3186H160.957V35.8496H157.408V21.075H155.228L154.857 27.0647C154.773 28.4457 154.674 29.6491 154.568 30.6641C154.488 31.5327 154.32 32.391 154.069 33.2263C153.889 33.8542 153.553 34.4265 153.093 34.8902C152.613 35.3301 152.016 35.6227 151.374 35.7332C150.469 35.8874 149.548 35.9266 148.634 35.8496Z" fill="black"/>
<path d="M169.021 36.0881C167.96 36.1413 166.905 35.9014 165.971 35.3949C165.225 34.9358 164.656 34.2381 164.357 33.4149C164.013 32.426 163.85 31.3835 163.875 30.3369V23.8036C163.85 22.7588 164.013 21.7181 164.357 20.7311C164.656 19.9165 165.226 19.2293 165.971 18.7845C166.932 18.3386 167.979 18.1077 169.038 18.1077C170.097 18.1077 171.144 18.3386 172.105 18.7845C172.852 19.2284 173.424 19.9157 173.724 20.7311C174.074 21.7129 174.239 22.7507 174.212 23.7925V30.3369C174.238 31.384 174.073 32.4271 173.724 33.4149C173.428 34.2413 172.856 34.9405 172.105 35.3949C171.159 35.901 170.093 36.1406 169.021 36.0881ZM169.021 33.5147C169.388 33.546 169.752 33.4325 170.036 33.1986C170.265 32.9695 170.416 32.6748 170.469 32.3556C170.542 31.9905 170.579 31.6189 170.58 31.2464V22.9384C170.58 22.5659 170.543 22.1943 170.469 21.8292C170.412 21.5146 170.261 21.2245 170.036 20.9973C169.752 20.7634 169.388 20.65 169.021 20.6812C168.667 20.6544 168.316 20.7679 168.045 20.9973C167.82 21.2245 167.669 21.5146 167.613 21.8292C167.54 22.1945 167.505 22.5661 167.507 22.9384V31.2242C167.507 31.596 167.539 31.967 167.601 32.3334C167.648 32.6522 167.796 32.9477 168.023 33.1764C168.298 33.4168 168.657 33.5384 169.021 33.5147Z" fill="black"/>
<path d="M177.107 35.8496V18.3297H184.916V20.9918H180.679V35.8496H177.107Z" fill="black"/>
<path d="M192.098 36.0881C191.037 36.1404 189.982 35.9006 189.048 35.3949C188.301 34.9382 187.734 34.2394 187.44 33.4149C187.091 32.4271 186.926 31.384 186.952 30.3369V23.8036C186.926 22.7583 187.091 21.717 187.44 20.7311C187.735 19.9158 188.303 19.2278 189.048 18.7845C190.009 18.3386 191.056 18.1077 192.115 18.1077C193.174 18.1077 194.221 18.3386 195.182 18.7845C195.929 19.2284 196.501 19.9157 196.801 20.7311C197.151 21.7129 197.316 22.7507 197.289 23.7925V30.3369C197.315 31.384 197.15 32.4271 196.801 33.4149C196.505 34.2413 195.933 34.9405 195.182 35.3949C194.236 35.901 193.17 36.1406 192.098 36.0881ZM192.098 33.5147C192.465 33.546 192.829 33.4325 193.113 33.1986C193.342 32.9696 193.493 32.6748 193.546 32.3556C193.619 31.9905 193.657 31.6189 193.657 31.2464V22.9384C193.658 22.5659 193.62 22.1943 193.546 21.8292C193.489 21.5146 193.338 21.2245 193.113 20.9973C192.829 20.7634 192.465 20.65 192.098 20.6812C191.746 20.654 191.397 20.7677 191.128 20.9973C190.899 21.2216 190.747 21.513 190.695 21.8292C190.618 22.1938 190.581 22.5658 190.584 22.9384V31.2242C190.584 31.5962 190.617 31.9675 190.684 32.3334C190.729 32.653 190.877 32.9491 191.106 33.1764C191.241 33.2953 191.398 33.3863 191.568 33.4444C191.739 33.5024 191.919 33.5263 192.098 33.5147Z" fill="black"/>
<path d="M199.192 39.5045V33.2763H199.746C200.077 33.1547 200.379 32.9659 200.634 32.7217C200.937 32.4111 201.188 32.0534 201.377 31.6624C201.633 31.128 201.839 30.571 201.992 29.9985C202.209 29.203 202.368 28.3931 202.469 27.5749C202.603 26.6266 202.708 25.5173 202.797 24.2473L203.229 18.3186H211.21V33.2763H213.112V39.5045H210.711L210.517 35.8496H201.876L201.66 39.5045H199.192ZM203.107 33.2763H207.844V20.8809H205.963L205.758 24.691C205.688 25.9888 205.586 27.098 205.453 28.0186C205.356 28.7837 205.2 29.5401 204.987 30.2814C204.851 30.7848 204.666 31.2735 204.433 31.74C204.264 32.0747 204.045 32.3814 203.784 32.6496L203.107 33.2763Z" fill="black"/>
<path d="M220.178 36.0881C219.101 36.1443 218.03 35.8882 217.094 35.3505C216.348 34.8713 215.788 34.1511 215.508 33.3095C215.187 32.3291 215.034 31.3017 215.053 30.2703V23.9755C215.03 22.9166 215.183 21.8612 215.508 20.8531C215.787 20.024 216.346 19.318 217.089 18.8565C218.028 18.3239 219.099 18.0664 220.178 18.1134C221.199 18.0613 222.216 18.2774 223.128 18.7401C223.815 19.1435 224.34 19.7727 224.615 20.5204C224.927 21.3723 225.078 22.2752 225.058 23.1825V24.6522H221.62V22.9883C221.622 22.6177 221.602 22.2473 221.559 21.8791C221.529 21.5608 221.404 21.2591 221.198 21.014C221.065 20.8892 220.906 20.7945 220.733 20.7362C220.56 20.6778 220.376 20.6572 220.195 20.6756C220.007 20.6585 219.818 20.6807 219.639 20.7408C219.461 20.801 219.297 20.8978 219.157 21.025C218.93 21.2743 218.787 21.5885 218.747 21.9235C218.684 22.3271 218.654 22.7352 218.658 23.1436V31.0911C218.651 31.5232 218.692 31.9547 218.78 32.3778C218.832 32.7008 218.991 32.9974 219.23 33.2208C219.505 33.4318 219.848 33.5361 220.195 33.5147C220.373 33.5329 220.552 33.5125 220.722 33.4551C220.891 33.3977 221.046 33.3045 221.176 33.182C221.387 32.9262 221.516 32.6133 221.548 32.2835C221.598 31.8881 221.622 31.4897 221.62 31.0911V29.394H225.081V30.8415C225.097 31.7658 224.951 32.6857 224.648 33.5591C224.374 34.3287 223.849 34.9834 223.156 35.417C222.247 35.9181 221.214 36.1508 220.178 36.0881Z" fill="black"/>
<path d="M227.787 35.8496V18.3297H231.353V25.4452H231.852L234.559 18.3297H238.103L234.836 26.5711L238.275 35.8496H234.598L231.825 28.0186H231.326V35.8496H227.787Z" fill="black"/>
<path d="M240.332 35.8496V18.3297H243.188V28.8394L247.814 18.3463H250.154V35.8496H247.254V25.1846L242.584 35.8496H240.332Z" fill="black"/>
<path d="M253.354 35.8496V18.3297H256.227V28.8394L260.858 18.3463H263.193V35.8496H260.276V25.1846L255.601 35.8496H253.354ZM258.545 16.9265C258.108 16.9519 257.669 16.8905 257.255 16.7458C256.841 16.6012 256.46 16.3761 256.133 16.0835C255.83 15.7627 255.595 15.3831 255.445 14.9681C255.294 14.5531 255.23 14.1117 255.257 13.671H257.115C257.086 14.0888 257.202 14.5036 257.442 14.8468C257.584 14.9933 257.758 15.1055 257.95 15.1747C258.142 15.2439 258.348 15.2683 258.551 15.2461C258.755 15.2682 258.961 15.2427 259.154 15.1714C259.346 15.1002 259.52 14.9853 259.66 14.8357C259.903 14.4976 260.02 14.086 259.993 13.671H261.834C261.859 14.1124 261.792 14.554 261.64 14.9689C261.487 15.3837 261.251 15.763 260.947 16.0835C260.623 16.3765 260.243 16.602 259.831 16.7467C259.419 16.8915 258.982 16.9526 258.545 16.9265Z" fill="black"/>
<path d="M272.255 35.8496V18.3297H275.827V25.4452H276.321L279.027 18.3297H282.577L279.31 26.5711L282.748 35.8496H279.094L276.321 28.0186H275.827V35.8496H272.255Z" fill="black"/>
<path d="M289.648 36.0881C288.587 36.1413 287.531 35.9014 286.597 35.3949C285.851 34.9358 285.283 34.2381 284.983 33.4149C284.643 32.4254 284.484 31.3828 284.512 30.3369V23.8036C284.487 22.7588 284.651 21.7181 284.995 20.7311C285.294 19.9165 285.863 19.2293 286.608 18.7845C287.569 18.3386 288.616 18.1077 289.675 18.1077C290.735 18.1077 291.781 18.3386 292.742 18.7845C293.49 19.2284 294.061 19.9157 294.362 20.7311C294.711 21.7129 294.877 22.7507 294.85 23.7925V30.3369C294.876 31.384 294.71 32.4271 294.362 33.4149C294.066 34.2413 293.494 34.9405 292.742 35.3949C291.793 35.9029 290.723 36.1426 289.648 36.0881ZM289.648 33.5147C290.014 33.546 290.379 33.4325 290.663 33.1986C290.891 32.9696 291.042 32.6748 291.095 32.3556C291.169 31.9905 291.206 31.6189 291.206 31.2464V22.9384C291.207 22.5659 291.17 22.1943 291.095 21.8292C291.038 21.5146 290.888 21.2245 290.663 20.9973C290.379 20.7634 290.014 20.65 289.648 20.6812C289.293 20.6544 288.943 20.7679 288.672 20.9973C288.447 21.2245 288.296 21.5146 288.239 21.8292C288.166 22.1945 288.131 22.5661 288.134 22.9384V31.2242C288.134 31.596 288.165 31.967 288.228 32.3334C288.275 32.6522 288.423 32.9477 288.649 33.1764C288.924 33.4168 289.283 33.5384 289.648 33.5147Z" fill="black"/>
<path d="M296.503 35.8496V33.3206C296.875 33.3274 297.247 33.2939 297.612 33.2208C297.898 33.1629 298.153 33.0009 298.327 32.766C298.548 32.4297 298.699 32.0525 298.771 31.6568C298.908 30.9959 299.004 30.3273 299.059 29.6547C299.137 28.8154 299.22 27.7542 299.309 26.4713L299.864 18.3186H308.798V35.8496H305.249V21.075H303.069L302.698 27.0647C302.614 28.4457 302.515 29.6491 302.409 30.6641C302.329 31.5327 302.161 32.391 301.91 33.2263C301.73 33.8542 301.394 34.4265 300.934 34.8902C300.453 35.3301 299.857 35.6227 299.215 35.7332C298.319 35.8851 297.408 35.9242 296.503 35.8496Z" fill="black"/>
<path d="M310.823 35.8496V33.3206C311.195 33.3268 311.567 33.2933 311.932 33.2208C312.217 33.1642 312.471 33.0018 312.642 32.766C312.867 32.4322 313.018 32.054 313.085 31.6568C313.227 30.9966 313.325 30.3278 313.379 29.6547C313.457 28.8154 313.54 27.7542 313.629 26.4713L314.183 18.3186H323.118V35.8496H319.569V21.075H317.383L317.017 27.0647C316.929 28.4457 316.834 29.6491 316.724 30.6641C316.647 31.5328 316.482 32.3914 316.23 33.2263C316.047 33.8529 315.711 34.4245 315.254 34.8902C314.773 35.329 314.176 35.6215 313.535 35.7332C312.639 35.8851 311.728 35.9242 310.823 35.8496Z" fill="black"/>
<path d="M326.329 35.8496V18.3297H333.966V20.7977H329.901V25.4452H333.034V27.9354H329.901V33.426H334.011V35.8496H326.329Z" fill="black"/>
<path d="M335.325 39.5045V33.2763H335.88C336.21 33.1547 336.513 32.9659 336.767 32.7217C337.07 32.4111 337.321 32.0534 337.51 31.6624C337.771 31.1293 337.979 30.5721 338.131 29.9985C338.343 29.2022 338.5 28.3925 338.603 27.5749C338.736 26.6266 338.841 25.5173 338.93 24.2473L339.362 18.3186H347.343V33.2763H349.245V39.5045H346.844L346.628 35.8496H338.031L337.815 39.5045H335.325ZM339.24 33.2763H343.977V20.8809H342.097L341.903 24.691C341.832 25.9888 341.731 27.098 341.597 28.0186C341.499 28.783 341.345 29.5393 341.137 30.2814C341.001 30.7849 340.816 31.2735 340.583 31.74C340.414 32.0747 340.195 32.3814 339.934 32.6496C339.684 32.8603 339.457 33.0821 339.24 33.2763Z" fill="black"/>
<path d="M350.255 35.8496L353.993 27.0259L350.405 18.3297H353.732L356.849 26.621H356.999V18.3297H359.877V26.621H360.049L363.144 18.3574H366.472L362.861 27.0536L366.627 35.8773H363.405L360.049 27.2865H359.877V35.8496H356.999V27.2865H356.849L353.477 35.8496H350.255Z" fill="black"/>
<path d="M379.349 36.0881C378.272 36.1443 377.201 35.8882 376.266 35.3505C375.52 34.8713 374.96 34.1511 374.68 33.3095C374.359 32.3291 374.205 31.3017 374.225 30.2703V23.9755C374.201 22.9166 374.355 21.8612 374.68 20.8531C374.953 20.0274 375.503 19.3218 376.238 18.8565C377.184 18.3199 378.263 18.0622 379.349 18.1134C380.371 18.0613 381.388 18.2774 382.3 18.7401C382.987 19.1435 383.512 19.7727 383.786 20.5204C384.099 21.3723 384.249 22.2752 384.23 23.1825V24.6522H380.769V22.9883C380.769 22.6178 380.748 22.2475 380.708 21.8791C380.679 21.5608 380.553 21.2591 380.348 21.014C380.214 20.8892 380.056 20.7945 379.882 20.7362C379.709 20.6778 379.526 20.6572 379.344 20.6756C379.156 20.6585 378.967 20.6807 378.788 20.7408C378.61 20.801 378.446 20.8978 378.307 21.025C378.079 21.2743 377.936 21.5885 377.896 21.9235C377.833 22.3271 377.804 22.7352 377.808 23.1436V31.0911C377.802 31.5229 377.841 31.9541 377.924 32.3778C377.98 32.7006 378.14 32.9964 378.379 33.2208C378.654 33.4327 378.997 33.5372 379.344 33.5147C379.522 33.5329 379.702 33.5125 379.871 33.4551C380.04 33.3977 380.195 33.3045 380.326 33.182C380.532 32.9237 380.661 32.6121 380.697 32.2835C380.747 31.8881 380.771 31.4897 380.769 31.0911V29.394H384.23V30.8415C384.246 31.7658 384.1 32.6857 383.797 33.5591C383.524 34.3287 382.998 34.9834 382.306 35.417C381.402 35.9131 380.378 36.1456 379.349 36.0881Z" fill="black"/>
<path d="M386.892 35.8496V18.3297H391.329C392.042 18.3256 392.753 18.3906 393.453 18.5238C394.066 18.6408 394.65 18.8762 395.172 19.217C395.675 19.5583 396.072 20.0352 396.315 20.5925C396.612 21.3143 396.75 22.0918 396.72 22.8719C396.734 23.4885 396.63 24.1021 396.415 24.6799C396.24 25.1438 395.94 25.5506 395.549 25.8557C395.141 26.1599 394.666 26.3615 394.163 26.4435C394.785 26.5188 395.375 26.756 395.877 27.1312C396.345 27.506 396.703 28.0004 396.914 28.5621C397.158 29.2488 397.275 29.9743 397.258 30.7029C397.273 31.4795 397.161 32.2533 396.925 32.9934C396.727 33.5981 396.389 34.1473 395.938 34.5962C395.483 35.0264 394.937 35.3486 394.34 35.5391C393.622 35.7575 392.873 35.8623 392.122 35.8496H386.892ZM390.441 25.4009H391.323C391.808 25.4293 392.291 25.3379 392.732 25.1347C393.048 24.9541 393.283 24.6609 393.392 24.3139C393.524 23.8752 393.585 23.4185 393.575 22.9606C393.596 22.5156 393.502 22.0726 393.303 21.6739C393.124 21.3474 392.832 21.0971 392.482 20.9696C392.034 20.8125 391.56 20.7392 391.085 20.7533H390.441V25.4009ZM390.441 33.3428H391.434C391.773 33.3803 392.116 33.3393 392.436 33.2229C392.756 33.1065 393.045 32.9179 393.281 32.6717C393.662 32.0723 393.84 31.3669 393.791 30.6585C393.814 30.094 393.733 29.5301 393.553 28.9947C393.414 28.6099 393.143 28.2873 392.787 28.0852C392.346 27.8708 391.858 27.7698 391.368 27.7912H390.441V33.3428Z" fill="black"/>
<path d="M398.7 35.8496L402.088 28.0408C401.378 27.6216 400.802 27.0102 400.424 26.2771C399.975 25.4132 399.752 24.4498 399.776 23.4764C399.721 22.4274 399.944 21.3826 400.424 20.4482C400.885 19.7061 401.585 19.1443 402.41 18.8565C403.442 18.4985 404.529 18.3294 405.621 18.3574H409.908V35.8496H406.359V28.8394H405.211L402.554 35.8441L398.7 35.8496ZM405.732 26.3326H406.359V20.7866H405.665C405.317 20.7635 404.967 20.8121 404.638 20.9295C404.309 21.0468 404.007 21.2303 403.752 21.4687C403.277 22.0337 403.044 22.763 403.103 23.4986C403.065 24.2259 403.259 24.9467 403.658 25.5562C404.046 26.0664 404.734 26.3326 405.732 26.3326Z" fill="black"/>
<path d="M417.39 36.1547C416.422 36.2013 415.46 35.9725 414.617 35.4947C413.926 35.0597 413.404 34.4025 413.136 33.6312C412.822 32.7411 412.672 31.8017 412.692 30.8582V30.2481H416.02V30.897C415.982 31.5303 416.083 32.1642 416.314 32.7549C416.418 32.9535 416.579 33.1159 416.777 33.2209C416.975 33.3258 417.2 33.3683 417.423 33.3428C417.578 33.3532 417.733 33.3325 417.88 33.282C418.026 33.2315 418.161 33.1523 418.277 33.0489C418.491 32.8137 418.63 32.5202 418.676 32.2059C418.755 31.7517 418.79 31.2912 418.782 30.8304C418.82 30.1204 418.67 29.4128 418.349 28.7784C418.061 28.2848 417.473 28.0297 416.58 27.9964C416.518 27.9857 416.454 27.9857 416.391 27.9964H415.67V25.7281H416.513C417.406 25.7281 418.011 25.4563 418.322 24.9905C418.665 24.3794 418.825 23.6824 418.782 22.9828C418.815 22.4076 418.697 21.8338 418.438 21.319C418.308 21.127 418.129 20.9739 417.919 20.8762C417.709 20.7785 417.476 20.7398 417.246 20.7644C417.021 20.7403 416.795 20.7853 416.596 20.8933C416.398 21.0013 416.238 21.1672 416.136 21.3689C415.902 21.8708 415.779 22.4176 415.776 22.9717V23.848H412.448V22.8941C412.418 21.9886 412.623 21.0907 413.042 20.2874C413.419 19.5881 413.999 19.0196 414.705 18.6569C415.498 18.2677 416.374 18.0773 417.257 18.1023C418.157 18.0793 419.05 18.2693 419.863 18.6569C420.567 18.9982 421.148 19.5482 421.527 20.232C421.927 21.0308 422.118 21.9182 422.082 22.8109C422.114 23.7114 421.893 24.6028 421.444 25.3842C421.099 26.0046 420.529 26.4691 419.852 26.682C420.282 26.8374 420.674 27.0833 421 27.403C421.36 27.7732 421.629 28.221 421.788 28.7119C422.003 29.3759 422.102 30.0718 422.082 30.7694C422.099 31.7309 421.941 32.6875 421.616 33.5924C421.342 34.3671 420.827 35.0337 420.146 35.4947C419.312 35.9809 418.353 36.2105 417.39 36.1547Z" fill="black"/>
<path d="M424.766 35.8496V18.3297H427.6V28.8394L432.225 18.3463H434.56V35.8496H431.665V25.1846L426.99 35.8496H424.766Z" fill="black"/>
<path d="M124.032 72.4535V54.9336H126.888V65.4433L131.513 54.9502H133.854V72.4701H130.953V61.794L126.283 72.4535H124.032Z" fill="black"/>
<path d="M142.933 72.4535V54.9336H145.789V65.4433L150.42 54.9502H152.755V72.4701H149.854V61.794L145.184 72.4535H142.933Z" fill="black"/>
<path d="M155.955 72.4535V54.9336H159.526V62.1434H162.616V54.9336H166.187V72.4535H162.616V64.689H159.526V72.4535H155.955Z" fill="black"/>
<path d="M174.534 73.1024V70.4348L173.941 70.4736C173.73 70.4736 173.525 70.4736 173.325 70.4736C172.558 70.4926 171.798 70.3291 171.107 69.9966C170.464 69.6792 169.932 69.1746 169.581 68.5491C169.183 67.7972 168.992 66.9533 169.027 66.1033V61.0231C168.998 60.2056 169.19 59.3954 169.581 58.6771C169.955 58.0297 170.508 57.504 171.173 57.1631C171.901 56.7875 172.711 56.5971 173.53 56.6085H174.046C174.223 56.6085 174.373 56.6085 174.501 56.6417V53.7966H177.468V56.6972C177.595 56.6972 177.745 56.6972 177.912 56.6639H178.394C179.231 56.6502 180.059 56.8406 180.807 57.2185C181.474 57.556 182.028 58.0826 182.398 58.7326C182.785 59.4527 182.976 60.2616 182.953 61.0786V66.1809C182.982 67.0304 182.791 67.873 182.398 68.6267C182.063 69.2425 181.554 69.7459 180.934 70.0743C180.315 70.3974 179.625 70.5613 178.926 70.5512C178.682 70.5512 178.438 70.5512 178.2 70.5512L177.457 70.5069V73.169L174.534 73.1024ZM174.057 68.2773C174.148 68.2828 174.238 68.2828 174.329 68.2773C174.397 68.2835 174.466 68.2835 174.534 68.2773V58.8491L174.273 58.8158H173.996C173.653 58.8036 173.315 58.8902 173.02 59.0654C172.75 59.2438 172.543 59.5015 172.427 59.803C172.277 60.1919 172.207 60.6068 172.221 61.0231V66.192C172.212 66.5846 172.266 66.976 172.382 67.3512C172.477 67.6473 172.674 67.9006 172.937 68.0666C173.284 68.2363 173.671 68.3091 174.057 68.2773ZM178.039 68.2773C178.399 68.2943 178.758 68.2138 179.076 68.0444C179.333 67.8719 179.528 67.621 179.631 67.329C179.763 66.9533 179.825 66.5567 179.814 66.1588V61.0065C179.826 60.5812 179.764 60.1571 179.631 59.7531C179.531 59.4566 179.336 59.2013 179.076 59.0265C178.787 58.8645 178.459 58.7858 178.128 58.7992H177.79L177.479 58.8324V68.2607H177.745C177.839 68.2721 177.933 68.2777 178.028 68.2773H178.039Z" fill="black"/>
<path d="M190.695 72.692C189.634 72.7452 188.579 72.5053 187.645 71.9988C186.897 71.5424 186.327 70.8437 186.031 70.0188C185.685 69.0303 185.52 67.9877 185.543 66.9408V60.4075C185.52 59.3624 185.685 58.3216 186.031 57.335C186.328 56.5193 186.898 55.8315 187.645 55.3884C188.605 54.9426 189.651 54.7117 190.709 54.7117C191.768 54.7117 192.813 54.9426 193.773 55.3884C194.522 55.832 195.096 56.5192 195.398 57.335C195.745 58.3175 195.91 59.3548 195.886 60.3964V66.9408C195.909 67.9877 195.744 69.0303 195.398 70.0188C195.1 70.8456 194.526 71.5447 193.773 71.9988C192.829 72.5057 191.765 72.7454 190.695 72.692ZM190.695 70.1186C191.062 70.1499 191.426 70.0364 191.71 69.8025C191.939 69.5734 192.09 69.2787 192.143 68.9595C192.214 68.5942 192.25 68.2226 192.248 67.8503V59.5423C192.25 59.17 192.215 58.7984 192.143 58.4331C192.086 58.1185 191.935 57.8284 191.71 57.6012C191.426 57.3673 191.062 57.2539 190.695 57.2851C190.341 57.2583 189.99 57.3718 189.719 57.6012C189.494 57.8284 189.343 58.1185 189.286 58.4331C189.214 58.7984 189.179 59.17 189.181 59.5423V67.8281C189.179 68.2 189.21 68.5712 189.275 68.9373C189.322 69.2561 189.47 69.5516 189.697 69.7803C189.972 70.0207 190.331 70.1423 190.695 70.1186Z" fill="black"/>
<path d="M198.737 72.4535V54.9336H204.283C205.179 54.8968 206.067 55.1017 206.856 55.527C207.519 55.9291 208.038 56.531 208.337 57.2463C208.682 58.1136 208.848 59.0418 208.825 59.9749C208.878 60.994 208.658 62.0086 208.187 62.9143C207.791 63.5958 207.178 64.125 206.446 64.4173C205.638 64.7278 204.777 64.8785 203.911 64.861H202.292V72.4535H198.737ZM202.309 62.3542H203.54C203.954 62.3782 204.367 62.2921 204.738 62.1046C205.02 61.926 205.219 61.6427 205.292 61.3171C205.403 60.8634 205.453 60.3973 205.442 59.9306C205.45 59.4804 205.411 59.0306 205.326 58.5884C205.251 58.2488 205.053 57.9487 204.771 57.7454C204.379 57.515 203.926 57.4105 203.473 57.4459H202.242L202.309 62.3542Z" fill="black"/>
<path d="M211.088 72.4535L211.393 54.9336H215.187L217.349 65.9868L219.668 54.9336H223.323L223.622 72.4535H221.026L220.749 60.5794L218.531 72.4535H216.312L213.977 60.4907L213.739 72.4535H211.088Z" fill="black"/>
<path d="M225.796 72.4535L229.19 54.9336H233.15L236.522 72.4535H233.195L232.568 68.6046H229.795L229.124 72.4535H225.796ZM230.161 66.4194H232.257L231.181 59.3427L230.161 66.4194Z" fill="black"/>
<path d="M248.918 76.1083L248.485 72.4535H238.818V54.9336H242.362V70.0299H245.74V54.9336H249.306V70.0299H251.524V76.1305L248.918 76.1083Z" fill="black"/>
<path d="M253.826 72.4535V54.9336H256.682V65.4433L261.313 54.9502H263.648V72.4701H260.747V61.794L256.078 72.4535H253.826Z" fill="black"/>
<path d="M271.695 72.692C270.634 72.7451 269.579 72.5053 268.645 71.9987C267.899 71.5397 267.33 70.8419 267.031 70.0188C266.687 69.0299 266.524 67.9874 266.548 66.9407V60.4075C266.524 59.3627 266.687 58.322 267.031 57.335C267.33 56.5204 267.9 55.8332 268.645 55.3883C269.606 54.9425 270.652 54.7115 271.712 54.7115C272.771 54.7115 273.818 54.9425 274.779 55.3883C275.526 55.8322 276.098 56.5195 276.398 57.335C276.748 58.3168 276.913 59.3546 276.886 60.3964V66.9407C276.912 67.9879 276.747 69.031 276.398 70.0188C276.102 70.8452 275.53 71.5444 274.779 71.9987C273.833 72.5048 272.767 72.7445 271.695 72.692ZM271.695 70.1186C272.062 70.1498 272.426 70.0364 272.71 69.8025C272.939 69.5734 273.09 69.2787 273.143 68.9595C273.216 68.5943 273.253 68.2228 273.254 67.8503V59.5423C273.254 59.1698 273.217 58.7982 273.143 58.4331C273.086 58.1184 272.935 57.8284 272.71 57.6012C272.426 57.3673 272.062 57.2539 271.695 57.2851C271.341 57.2582 270.99 57.3718 270.719 57.6012C270.494 57.8284 270.343 58.1184 270.286 58.4331C270.214 58.7984 270.179 59.17 270.181 59.5423V67.8281C270.181 68.1998 270.213 68.5709 270.275 68.9373C270.322 69.2561 270.47 69.5515 270.697 69.7803C270.972 70.0206 271.331 70.1423 271.695 70.1186Z" fill="black"/>
<path d="M279.781 72.4535V54.9336H283.353V62.1434H286.448V54.9336H290.014V72.4535H286.448V64.689H283.353V72.4535H279.781Z" fill="black"/>
<path d="M293.236 72.4535V54.9336H296.808V62.1434H299.897V54.9336H303.468V72.4535H299.897V64.689H296.808V72.4535H293.236Z" fill="black"/>
<path d="M306.696 72.4535V54.9336H310.262V62.3098H311.089C312.08 62.2782 313.066 62.4558 313.984 62.8311C314.744 63.1565 315.37 63.7318 315.759 64.4617C316.197 65.3675 316.405 66.3678 316.363 67.3733C316.392 68.2386 316.252 69.1012 315.953 69.9134C315.715 70.5223 315.318 71.0566 314.805 71.4608C314.289 71.8454 313.694 72.1106 313.063 72.2372C312.333 72.3875 311.59 72.46 310.845 72.4535H306.696ZM310.262 70.0964H310.872C311.319 70.1162 311.762 70.0187 312.159 69.8136C312.496 69.6117 312.745 69.2913 312.858 68.9151C313.018 68.3948 313.083 67.8502 313.052 67.3068C313.072 66.6643 312.909 66.0294 312.581 65.4766C312.276 65.0274 311.693 64.8 310.828 64.8H310.273L310.262 70.0964ZM317.899 72.4535V54.9336H321.471V72.4535H317.899Z" fill="black"/>
<path d="M323.473 72.4535L326.934 63.0862L323.606 54.9336H326.978L329.052 59.9749L330.805 54.9336H333.816L330.611 63.9126L334.116 72.4535H330.788L328.498 66.9407L326.485 72.4535H323.473Z" fill="black"/>
<path d="M343.611 72.4535V57.5957H340.91V54.9336H349.861V57.5957H347.182V72.4535H343.611Z" fill="black"/>
<path d="M351.919 72.4535V54.9336H359.55V57.4015H355.501V62.0491H358.64V64.5393H355.501V70.0299H359.611V72.4535H351.919Z" fill="black"/>
<path d="M360.72 72.4535L364.181 63.0862L360.853 54.9336H364.231L366.305 59.9749L368.058 54.9336H371.064L367.864 63.9126L371.369 72.4535H368.041L365.751 66.9407L363.737 72.4535H360.72Z" fill="black"/>
<path d="M373.371 72.4535V54.9336H376.942V62.1434H380.037V54.9336H383.603V72.4535H380.037V64.689H376.942V72.4535H373.371Z" fill="black"/>
<path d="M391.673 72.692C390.612 72.7451 389.556 72.5053 388.622 71.9987C387.876 71.5397 387.308 70.8419 387.009 70.0188C386.665 69.0299 386.501 67.9874 386.526 66.9407V60.4075C386.501 59.3627 386.665 58.322 387.009 57.335C387.308 56.5204 387.877 55.8332 388.622 55.3883C389.583 54.9425 390.63 54.7115 391.689 54.7115C392.749 54.7115 393.795 54.9425 394.756 55.3883C395.504 55.8322 396.075 56.5195 396.376 57.335C396.725 58.3168 396.891 59.3546 396.864 60.3964V66.9407C396.89 67.9879 396.724 69.031 396.376 70.0188C396.079 70.8452 395.508 71.5444 394.756 71.9987C393.81 72.5048 392.744 72.7445 391.673 72.692ZM391.673 70.1186C392.039 70.1498 392.404 70.0364 392.688 69.8025C392.916 69.5734 393.067 69.2787 393.12 68.9595C393.194 68.5943 393.231 68.2228 393.231 67.8503V59.5423C393.232 59.1698 393.194 58.7982 393.12 58.4331C393.064 58.1184 392.913 57.8284 392.688 57.6012C392.404 57.3673 392.039 57.2539 391.673 57.2851C391.318 57.2582 390.968 57.3718 390.697 57.6012C390.472 57.8284 390.321 58.1184 390.264 58.4331C390.192 58.7984 390.156 59.17 390.159 59.5423V67.8281C390.159 68.1998 390.19 68.5709 390.253 68.9373C390.3 69.2561 390.448 69.5515 390.674 69.7803C390.949 70.0206 391.308 70.1423 391.673 70.1186Z" fill="black"/>
<path d="M398.528 72.4535V69.9245C398.9 69.9313 399.272 69.8978 399.637 69.8247C399.923 69.7668 400.178 69.6048 400.352 69.3699C400.573 69.0337 400.724 68.6565 400.796 68.2607C400.933 67.6018 401.03 66.935 401.084 66.2641C401.162 65.4267 401.251 64.3674 401.334 63.0807L401.916 54.928H410.851V72.448H407.301V57.6789H405.122L404.75 63.6686C404.667 65.0496 404.567 66.253 404.462 67.268C404.381 68.1365 404.214 68.9948 403.963 69.8302C403.783 70.4581 403.447 71.0304 402.987 71.4941C402.506 71.934 401.909 72.2266 401.267 72.3371C400.363 72.4913 399.442 72.5304 398.528 72.4535Z" fill="black"/>
<path d="M418.926 72.692C417.865 72.7451 416.81 72.5053 415.876 71.9987C415.13 71.5397 414.561 70.8419 414.262 70.0188C413.918 69.0299 413.755 67.9874 413.779 66.9407V60.4075C413.755 59.3627 413.918 58.322 414.262 57.335C414.561 56.5204 415.131 55.8332 415.876 55.3883C416.837 54.9425 417.883 54.7115 418.943 54.7115C420.002 54.7115 421.049 54.9425 422.01 55.3883C422.757 55.8322 423.329 56.5195 423.629 57.335C423.978 58.3168 424.144 59.3546 424.117 60.3964V66.9407C424.143 67.9879 423.977 69.031 423.629 70.0188C423.333 70.8452 422.761 71.5444 422.01 71.9987C421.064 72.5048 419.998 72.7445 418.926 72.692ZM418.926 70.1186C419.293 70.1498 419.657 70.0364 419.941 69.8025C420.169 69.5734 420.321 69.2787 420.374 68.9595C420.447 68.5943 420.484 68.2228 420.484 67.8503V59.5423C420.485 59.1698 420.448 58.7982 420.374 58.4331C420.317 58.1184 420.166 57.8284 419.941 57.6012C419.657 57.3673 419.293 57.2539 418.926 57.2851C418.572 57.2582 418.221 57.3718 417.95 57.6012C417.725 57.8284 417.574 58.1184 417.517 58.4331C417.445 58.7984 417.41 59.17 417.412 59.5423V67.8281C417.412 68.1998 417.444 68.5709 417.506 68.9373C417.553 69.2561 417.701 69.5515 417.928 69.7803C418.203 70.0206 418.562 70.1423 418.926 70.1186Z" fill="black"/>
<path d="M427.012 72.4535V54.9336H434.81V57.5957H430.573V72.4535H427.012Z" fill="black"/>
<path d="M437.156 72.4535V54.9336H440.012V65.4433L444.643 54.9502H446.978V72.4701H444.077V61.794L439.408 72.4535H437.156Z" fill="black"/>
<path d="M450.178 72.4535V54.9336H453.034V65.4433L457.665 54.9502H460V72.4701H457.099V61.794L452.43 72.4535H450.178ZM455.369 53.5304C454.931 53.5558 454.493 53.4944 454.079 53.3497C453.665 53.2051 453.283 52.98 452.957 52.6874C452.653 52.3666 452.419 51.987 452.268 51.572C452.118 51.157 452.054 50.7156 452.08 50.2749H453.944C453.914 50.692 454.027 51.1068 454.265 51.4506C454.408 51.5966 454.582 51.7083 454.774 51.7774C454.966 51.8466 455.172 51.8714 455.375 51.85C455.579 51.8725 455.785 51.8472 455.978 51.7759C456.17 51.7047 456.344 51.5895 456.484 51.4395C456.728 51.1023 456.848 50.6906 456.822 50.2749H458.658C458.682 50.7162 458.616 51.1579 458.463 51.5728C458.311 51.9876 458.075 52.3669 457.771 52.6874C457.446 52.9807 457.067 53.2063 456.655 53.3511C456.242 53.4958 455.805 53.5568 455.369 53.5304Z" fill="black"/>
<defs>
<linearGradient id="paint0_linear" x1="0" y1="0" x2="89.7683" y2="89.7683" gradientUnits="userSpaceOnUse">
<stop stop-color="#0034FC"/>
<stop offset="0.25" stop-color="#2226FD"/>
<stop offset="0.76" stop-color="#630BFE"/>
<stop offset="1" stop-color="#7C00FF"/>
</linearGradient>
</defs>
</svg>
