<svg width="169" height="34" viewBox="0 0 169 34" fill="none" xmlns="http://www.w3.org/2000/svg">
<path d="M18.5904 8.45484C18.5908 8.76833 18.6608 9.07752 18.7949 9.35849C18.9291 9.63946 19.1237 9.88467 19.3639 10.0752C19.6041 10.2657 19.8833 10.3963 20.1799 10.4571C20.4766 10.5178 20.7828 10.507 21.0748 10.4254C21.3667 10.3439 21.6367 10.1938 21.8638 9.98674C22.0909 9.77972 22.269 9.52132 22.3843 9.23153C22.4997 8.94174 22.5492 8.62832 22.529 8.31553C22.5088 8.00273 22.4195 7.69894 22.2679 7.42765L23.585 6.06228H32.7961V12.154H26.5432C26.4202 11.6744 26.1332 11.2576 25.7356 10.9814C25.338 10.7051 24.8571 10.5882 24.3825 10.6525C23.9079 10.7168 23.4721 10.9578 23.1563 11.3307C22.8405 11.7036 22.6664 12.1829 22.6664 12.6791C22.6664 13.1753 22.8405 13.6546 23.1563 14.0275C23.4721 14.4004 23.9079 14.6415 24.3825 14.7057C24.8571 14.77 25.338 14.6531 25.7356 14.3769C26.1332 14.1006 26.4202 13.6838 26.5432 13.2043H32.7941V34H27.9454V24.2197C27.9454 24.0804 27.8922 23.9467 27.7974 23.8479L26.3406 22.3418C26.5164 22.031 26.6088 21.677 26.6081 21.3167C26.6077 20.8672 26.4643 20.4304 26.2 20.074C25.9358 19.7177 25.5655 19.4616 25.1466 19.3457C24.7277 19.2298 24.2836 19.2604 23.8832 19.4328C23.4828 19.6052 23.1484 19.9098 22.932 20.2993C22.7156 20.6888 22.6292 21.1414 22.6863 21.587C22.7433 22.0326 22.9406 22.4462 23.2475 22.7637C23.5544 23.0812 23.9538 23.2848 24.3838 23.343C24.8137 23.4011 25.2501 23.3106 25.6254 23.0854L26.9282 24.4361V34H21.0725V27.5176C21.535 27.3901 21.9371 27.0925 22.2036 26.6804C22.4701 26.2682 22.5828 25.7696 22.5208 25.2776C22.4588 24.7855 22.2263 24.3337 21.8666 24.0064C21.5069 23.679 21.0446 23.4985 20.5659 23.4985C20.0873 23.4985 19.625 23.679 19.2653 24.0064C18.9056 24.3337 18.6731 24.7855 18.6111 25.2776C18.549 25.7696 18.6618 26.2682 18.9283 26.6804C19.1948 27.0925 19.5968 27.3901 20.0594 27.5176V33.9979H0V28.988H9.42588C9.56028 28.988 9.68922 28.9329 9.78452 28.8347L11.2434 27.3223C11.6531 27.5746 12.1373 27.6639 12.6058 27.5735C13.0743 27.4831 13.4951 27.2191 13.7897 26.8308C14.0843 26.4424 14.2326 25.9563 14.2069 25.463C14.1813 24.9696 13.9835 24.5028 13.6504 24.1495C13.3172 23.7963 12.8715 23.5807 12.3964 23.5429C11.9212 23.5052 11.4491 23.6479 11.0679 23.9444C10.6868 24.241 10.4226 24.6711 10.3248 25.1546C10.227 25.6381 10.3021 26.142 10.5362 26.5723L9.21719 27.9377H0V21.846H6.25083C6.37381 22.3256 6.66086 22.7424 7.05844 23.0186C7.45602 23.2949 7.93697 23.4118 8.41156 23.3475C8.88616 23.2832 9.32199 23.0422 9.63775 22.6693C9.95351 22.2964 10.1276 21.8171 10.1276 21.3209C10.1276 20.8247 9.95351 20.3454 9.63775 19.9725C9.32199 19.5996 8.88616 19.3585 8.41156 19.2943C7.93697 19.23 7.45602 19.3469 7.05844 19.6231C6.66086 19.8994 6.37381 20.3162 6.25083 20.7957H0V0H4.84059V9.7719C4.84074 9.84106 4.85406 9.9095 4.87979 9.97331C4.90552 10.0371 4.94316 10.095 4.99053 10.1437L6.4494 11.6582C6.20673 12.0855 6.12234 12.5897 6.21199 13.0768C6.30163 13.5639 6.55918 14.0005 6.93655 14.3051C7.31393 14.6097 7.78534 14.7616 8.2628 14.7323C8.74025 14.7031 9.19112 14.4947 9.53124 14.1461C9.87136 13.7974 10.0775 13.3324 10.1111 12.8378C10.1448 12.3432 10.0037 11.8528 9.71413 11.4581C9.42459 11.0634 9.0064 10.7915 8.53764 10.693C8.06887 10.5946 7.58156 10.6763 7.16667 10.923L5.85369 9.56394V0H11.7297V6.48029C11.2666 6.6078 10.864 6.90562 10.5971 7.3182C10.3303 7.73078 10.2173 8.22993 10.2793 8.72251C10.3413 9.21509 10.5741 9.66746 10.9342 9.9952C11.2943 10.3229 11.7571 10.5037 12.2362 10.5037C12.7154 10.5037 13.1782 10.3229 13.5383 9.9952C13.8984 9.66746 14.1311 9.21509 14.1931 8.72251C14.2552 8.22993 14.1422 7.73078 13.8753 7.3182C13.6084 6.90562 13.2059 6.6078 12.7428 6.48029V0H32.8022V5.01199H23.3763C23.242 5.01242 23.1132 5.06748 23.0176 5.16533L21.5507 6.68615C21.251 6.50603 20.9108 6.41096 20.5644 6.4105C20.218 6.41004 19.8776 6.50421 19.5775 6.68353C19.2773 6.86285 19.0281 7.12099 18.8548 7.43195C18.6815 7.74291 18.5903 8.09572 18.5904 8.45484Z" fill="url(#paint0_linear)"/>
<path d="M45.2976 13.5782V6.94244H46.9186C47.1783 6.941 47.4375 6.96562 47.6926 7.01596C47.9165 7.06027 48.1298 7.14946 48.3207 7.27854C48.5051 7.40768 48.6506 7.58828 48.7401 7.79948C48.8468 8.07342 48.8965 8.36761 48.886 8.66282C48.8912 8.89635 48.8534 9.12876 48.7746 9.34761C48.7107 9.52331 48.6013 9.67738 48.4585 9.79293C48.3093 9.90816 48.1356 9.98452 47.9519 10.0156C48.179 10.0441 48.3949 10.1339 48.578 10.2761C48.7492 10.418 48.8801 10.6053 48.9569 10.818C49.0462 11.0781 49.0888 11.3529 49.0826 11.6288C49.0882 11.923 49.0472 12.2161 48.961 12.4964C48.8887 12.7254 48.7651 12.9334 48.6003 13.1035C48.4341 13.2664 48.2347 13.3884 48.0168 13.4606C47.7542 13.5433 47.4807 13.583 47.2063 13.5782H45.2976ZM46.6025 9.62069H46.9267C47.103 9.63119 47.279 9.59656 47.4393 9.51986C47.5546 9.45145 47.6407 9.34041 47.6804 9.20897C47.7285 9.04282 47.7511 8.86986 47.7473 8.69643C47.7549 8.52786 47.7207 8.36007 47.648 8.20909C47.5826 8.08542 47.476 7.99062 47.3481 7.94232C47.1849 7.88276 47.0125 7.85499 46.8396 7.8604H46.6025V9.62069ZM46.6025 12.6287H46.9652C47.0889 12.6429 47.2142 12.6274 47.3312 12.5833C47.4482 12.5392 47.5538 12.4678 47.6399 12.3745C47.78 12.148 47.8454 11.8804 47.8263 11.612C47.8346 11.3982 47.8051 11.1847 47.7392 10.9819C47.6901 10.8353 47.5905 10.7126 47.4596 10.6374C47.2983 10.5562 47.12 10.5179 46.9409 10.526H46.6025V12.6287Z" fill="black"/>
<path d="M51.7938 13.6686C51.4061 13.6887 51.0206 13.5978 50.6794 13.406C50.4069 13.2321 50.1991 12.9678 50.0898 12.6561C49.9642 12.2815 49.9045 11.8867 49.9135 11.4902V9.01576C49.9045 8.62004 49.9642 8.22586 50.0898 7.85204C50.199 7.54351 50.4072 7.28323 50.6794 7.11474C51.0305 6.94588 51.4129 6.8584 51.7999 6.8584C52.1869 6.8584 52.5693 6.94588 52.9204 7.11474C53.1933 7.28287 53.4022 7.54319 53.512 7.85204C53.6397 8.22391 53.7001 8.61698 53.6903 9.01156V11.4902C53.6997 11.8869 53.6393 12.2819 53.512 12.6561C53.4038 12.9691 53.1948 13.2339 52.9204 13.406C52.5747 13.5977 52.1853 13.6884 51.7938 13.6686ZM51.7938 12.6939C51.9277 12.7057 52.0608 12.6627 52.1646 12.5741C52.2481 12.4874 52.3033 12.3758 52.3226 12.2549C52.3495 12.1166 52.3631 11.9758 52.3632 11.8347V8.68807C52.3634 8.54697 52.3499 8.40621 52.3226 8.26796C52.3019 8.14877 52.2468 8.03891 52.1646 7.95287C52.0608 7.86429 51.9277 7.82131 51.7938 7.83314C51.6644 7.82297 51.5363 7.86598 51.4372 7.95287C51.355 8.03891 51.2999 8.14877 51.2791 8.26796C51.2527 8.40629 51.2398 8.54705 51.2407 8.68807V11.8263C51.2407 11.9671 51.2523 12.1077 51.2751 12.2465C51.2922 12.3672 51.3462 12.4791 51.4291 12.5657C51.5295 12.6568 51.6607 12.7028 51.7938 12.6939Z" fill="black"/>
<path d="M54.3022 13.5779V12.6201C54.4382 12.6226 54.5741 12.6099 54.7075 12.5822C54.8122 12.5603 54.9053 12.499 54.9689 12.41C55.0495 12.2826 55.1046 12.1398 55.131 11.9899C55.1809 11.7396 55.2161 11.4863 55.2363 11.2316C55.2667 10.9144 55.2951 10.5132 55.3275 10.0258L55.5402 6.93799H58.8045V13.5779H57.5077V7.98198H56.7114L56.5756 10.2506C56.5452 10.7736 56.5088 11.2295 56.4703 11.6139C56.4408 11.9429 56.3797 12.268 56.2879 12.5843C56.2221 12.8222 56.0994 13.0389 55.9313 13.2145C55.7558 13.3811 55.5377 13.492 55.3032 13.5338C54.9727 13.5922 54.6364 13.6071 54.3022 13.5779Z" fill="black"/>
<path d="M61.7506 13.6686C61.3629 13.6887 60.9774 13.5978 60.6362 13.406C60.3637 13.2321 60.1559 12.9678 60.0466 12.6561C59.921 12.2815 59.8613 11.8867 59.8703 11.4902V9.01576C59.8613 8.62004 59.921 8.22586 60.0466 7.85204C60.1558 7.54351 60.364 7.28323 60.6362 7.11474C60.9873 6.94588 61.3696 6.8584 61.7567 6.8584C62.1437 6.8584 62.5261 6.94588 62.8772 7.11474C63.1501 7.28287 63.359 7.54319 63.4688 7.85204C63.5965 8.22391 63.6569 8.61698 63.6471 9.01156V11.4902C63.6565 11.8869 63.5961 12.2819 63.4688 12.6561C63.3605 12.9691 63.1516 13.2339 62.8772 13.406C62.5315 13.5977 62.1421 13.6884 61.7506 13.6686ZM61.7506 12.6939C61.8845 12.7057 62.0176 12.6627 62.1214 12.5741C62.2049 12.4874 62.2601 12.3758 62.2794 12.2549C62.3063 12.1166 62.3199 11.9758 62.3199 11.8347V8.68807C62.3202 8.54697 62.3066 8.40621 62.2794 8.26796C62.2587 8.14877 62.2036 8.03891 62.1214 7.95287C62.0176 7.86429 61.8845 7.82131 61.7506 7.83314C61.6212 7.82297 61.4931 7.86598 61.394 7.95287C61.3118 8.03891 61.2567 8.14877 61.2359 8.26796C61.2094 8.40629 61.1965 8.54705 61.1974 8.68807V11.8263C61.1975 11.9671 61.209 12.1077 61.2319 12.2465C61.249 12.3672 61.303 12.4791 61.3859 12.5657C61.4863 12.6568 61.6175 12.7028 61.7506 12.6939Z" fill="black"/>
<path d="M64.7046 13.5781V6.94238H67.5575V7.95066H66.0095V13.5781H64.7046Z" fill="black"/>
<path d="M70.1816 13.6685C69.7939 13.6884 69.4085 13.5975 69.0672 13.406C68.7943 13.233 68.5869 12.9684 68.4796 12.6561C68.3523 12.2819 68.2919 11.8869 68.3012 11.4902V9.01576C68.2918 8.61983 68.3523 8.22545 68.4796 7.85204C68.5873 7.54323 68.7949 7.28267 69.0672 7.11474C69.4182 6.94588 69.8006 6.8584 70.1876 6.8584C70.5747 6.8584 70.9571 6.94588 71.3081 7.11474C71.5811 7.28287 71.79 7.54319 71.8998 7.85204C72.0275 8.22391 72.0879 8.61698 72.0781 9.01156V11.4902C72.0875 11.8869 72.0271 12.2819 71.8998 12.6561C71.7915 12.9691 71.5826 13.2339 71.3081 13.406C70.9625 13.5977 70.5731 13.6884 70.1816 13.6685ZM70.1816 12.6939C70.3155 12.7057 70.4486 12.6627 70.5524 12.5741C70.6359 12.4874 70.6911 12.3758 70.7104 12.2549C70.7373 12.1166 70.7509 11.9758 70.7509 11.8347V8.68807C70.7512 8.54697 70.7376 8.40621 70.7104 8.26796C70.6897 8.14877 70.6346 8.03891 70.5524 7.95287C70.4486 7.86429 70.3155 7.82131 70.1816 7.83314C70.0528 7.82284 69.9252 7.8659 69.827 7.95287C69.7434 8.03783 69.688 8.14819 69.6689 8.26796C69.6408 8.40606 69.6272 8.54692 69.6284 8.68807V11.8263C69.6282 11.9672 69.6404 12.1079 69.6649 12.2465C69.6812 12.3675 69.7353 12.4796 69.8189 12.5657C69.8683 12.6108 69.9257 12.6452 69.9879 12.6672C70.0502 12.6892 70.116 12.6983 70.1816 12.6939Z" fill="black"/>
<path d="M72.7729 14.9622V12.6033H72.9756C73.0965 12.5572 73.2069 12.4857 73.2998 12.3932C73.4106 12.2756 73.5023 12.1401 73.5713 11.992C73.6649 11.7896 73.7402 11.5786 73.7962 11.3618C73.8752 11.0605 73.9335 10.7537 73.9704 10.4439C74.0191 10.0847 74.0576 9.66454 74.09 9.18351L74.248 6.93799H77.1637V12.6033H77.8587V14.9622H76.9814L76.9105 13.5779H73.7536L73.6746 14.9622H72.7729ZM74.2034 12.6033H75.9338V7.90846H75.2469L75.172 9.35156C75.1463 9.84309 75.1092 10.2632 75.0605 10.6119C75.025 10.9017 74.9681 11.1882 74.8903 11.4689C74.8407 11.6596 74.7728 11.8447 74.6877 12.0214C74.6262 12.1481 74.5462 12.2643 74.4506 12.3659L74.2034 12.6033Z" fill="black"/>
<path d="M80.4402 13.6683C80.0466 13.6896 79.6554 13.5926 79.3137 13.3889C79.041 13.2074 78.8365 12.9346 78.7342 12.6159C78.6169 12.2446 78.5608 11.8554 78.568 11.4648V9.08061C78.5593 8.67955 78.6155 8.27982 78.7342 7.89798C78.8359 7.58396 79.0402 7.31655 79.3116 7.14178C79.6549 6.94005 80.046 6.84251 80.4402 6.8603C80.8134 6.84059 81.185 6.92242 81.5182 7.09766C81.769 7.25045 81.961 7.48878 82.0612 7.77195C82.1754 8.09462 82.2304 8.4366 82.2233 8.78023V9.33688H80.967V8.70671C80.9678 8.56633 80.9603 8.42604 80.9447 8.28659C80.9339 8.16604 80.888 8.05175 80.813 7.9589C80.7643 7.91167 80.7063 7.8758 80.643 7.8537C80.5798 7.8316 80.5127 7.82378 80.4463 7.83077C80.3777 7.82426 80.3086 7.83267 80.2434 7.85545C80.1781 7.87824 80.1182 7.91491 80.0674 7.9631C79.9843 8.0575 79.9319 8.17651 79.9175 8.3034C79.8945 8.45626 79.8836 8.61082 79.885 8.76552V11.7757C79.8825 11.9393 79.8975 12.1027 79.9296 12.263C79.9487 12.3853 80.0064 12.4977 80.0937 12.5823C80.1945 12.6622 80.3197 12.7017 80.4463 12.6936C80.5113 12.7005 80.577 12.6928 80.6388 12.671C80.7007 12.6493 80.7574 12.614 80.8049 12.5676C80.8819 12.4707 80.9291 12.3522 80.9407 12.2273C80.959 12.0775 80.9678 11.9266 80.967 11.7757V11.1329H82.2314V11.6811C82.2374 12.0312 82.1839 12.3796 82.0733 12.7104C81.9733 13.0019 81.7812 13.2499 81.5283 13.4141C81.1961 13.6039 80.8188 13.692 80.4402 13.6683Z" fill="black"/>
<path d="M83.22 13.5781V6.94238H84.5228V9.63743H84.7052L85.694 6.94238H86.9887L85.7953 10.0638L87.0515 13.5781H85.7081L84.695 10.6121H84.5127V13.5781H83.22Z" fill="black"/>
<path d="M87.8035 13.5781V6.94238H88.847V10.923L90.5368 6.94869H91.3919V13.5781H90.3322V9.5387L88.6261 13.5781H87.8035Z" fill="black"/>
<path d="M92.5608 13.578V6.94222H93.6104V10.9228L95.3023 6.94852H96.1553V13.578H95.0895V9.53854L93.3814 13.578H92.5608ZM94.4573 6.41078C94.2974 6.4204 94.1371 6.39714 93.9859 6.34235C93.8346 6.28755 93.6953 6.2023 93.5759 6.09149C93.4651 5.96997 93.3795 5.82619 93.3245 5.66902C93.2694 5.51185 93.246 5.34464 93.2558 5.17773H93.9346C93.9243 5.33597 93.9664 5.49309 94.0541 5.62306C94.1061 5.67858 94.1696 5.72106 94.2399 5.74727C94.3101 5.77348 94.3852 5.78273 94.4594 5.7743C94.5339 5.78268 94.6093 5.77301 94.6796 5.74603C94.7499 5.71906 94.8133 5.67552 94.8646 5.61886C94.9531 5.49083 94.9961 5.33493 94.9862 5.17773H95.6589C95.6677 5.3449 95.6435 5.51219 95.5878 5.66932C95.532 5.82645 95.4459 5.97011 95.3347 6.09149C95.2162 6.20246 95.0776 6.28786 94.927 6.34268C94.7764 6.3975 94.6167 6.42065 94.4573 6.41078Z" fill="black"/>
<path d="M99.4661 13.5781V6.94238H100.771V9.63743H100.951L101.94 6.94238H103.237L102.043 10.0638L103.3 13.5781H101.964L100.951 10.6121H100.771V13.5781H99.4661Z" fill="black"/>
<path d="M105.82 13.6686C105.433 13.6887 105.047 13.5978 104.706 13.406C104.433 13.2321 104.226 12.9678 104.116 12.6561C103.992 12.2813 103.934 11.8864 103.944 11.4902V9.01576C103.935 8.62004 103.995 8.22586 104.12 7.85204C104.23 7.54351 104.438 7.28323 104.71 7.11474C105.061 6.94588 105.443 6.8584 105.83 6.8584C106.217 6.8584 106.6 6.94588 106.951 7.11474C107.224 7.28287 107.433 7.54319 107.543 7.85204C107.67 8.22391 107.731 8.61698 107.721 9.01156V11.4902C107.73 11.8869 107.67 12.2819 107.543 12.6561C107.434 12.9691 107.225 13.2339 106.951 13.406C106.604 13.5984 106.213 13.6892 105.82 13.6686ZM105.82 12.6939C105.954 12.7057 106.087 12.6627 106.191 12.5741C106.275 12.4874 106.33 12.3758 106.349 12.2549C106.376 12.1166 106.39 11.9758 106.39 11.8347V8.68807C106.39 8.54697 106.376 8.40621 106.349 8.26796C106.328 8.14877 106.273 8.03891 106.191 7.95287C106.087 7.86429 105.954 7.82131 105.82 7.83314C105.691 7.82297 105.563 7.86598 105.464 7.95287C105.381 8.03891 105.326 8.14877 105.306 8.26796C105.279 8.40629 105.266 8.54705 105.267 8.68807V11.8263C105.267 11.9671 105.279 12.1077 105.302 12.2465C105.319 12.3672 105.373 12.4791 105.456 12.5657C105.556 12.6568 105.687 12.7028 105.82 12.6939Z" fill="black"/>
<path d="M108.325 13.5779V12.6201C108.461 12.6226 108.597 12.6099 108.73 12.5822C108.835 12.5603 108.928 12.499 108.991 12.41C109.072 12.2826 109.127 12.1398 109.153 11.9899C109.203 11.7396 109.239 11.4863 109.259 11.2316C109.287 10.9137 109.318 10.5118 109.35 10.0258L109.553 6.93799H112.817V13.5779H111.52V7.98198H110.724L110.588 10.2506C110.558 10.7736 110.521 11.2295 110.483 11.6139C110.453 11.9429 110.392 12.268 110.3 12.5843C110.234 12.8222 110.112 13.0389 109.944 13.2145C109.768 13.3811 109.55 13.492 109.316 13.5338C108.988 13.5914 108.655 13.6062 108.325 13.5779Z" fill="black"/>
<path d="M113.556 13.5779V12.6201C113.692 12.6224 113.828 12.6097 113.962 12.5822C114.066 12.5608 114.159 12.4993 114.221 12.41C114.303 12.2836 114.359 12.1403 114.383 11.9899C114.435 11.7398 114.471 11.4865 114.49 11.2316C114.519 10.9137 114.549 10.5118 114.582 10.0258L114.784 6.93799H118.048V13.5779H116.752V7.98198H115.953L115.82 10.2506C115.787 10.7736 115.753 11.2295 115.712 11.6139C115.684 11.9429 115.624 12.2681 115.532 12.5843C115.465 12.8217 115.342 13.0381 115.175 13.2145C115 13.3807 114.782 13.4915 114.547 13.5338C114.22 13.5914 113.887 13.6062 113.556 13.5779Z" fill="black"/>
<path d="M119.222 13.5781V6.94238H122.012V7.87714H120.527V9.63743H121.671V10.5806H120.527V12.6602H122.028V13.5781H119.222Z" fill="black"/>
<path d="M122.508 14.9622V12.6033H122.711C122.832 12.5572 122.942 12.4857 123.035 12.3932C123.146 12.2756 123.237 12.1401 123.306 11.992C123.402 11.7901 123.478 11.579 123.533 11.3618C123.611 11.0602 123.668 10.7535 123.706 10.4439C123.754 10.0847 123.793 9.66454 123.825 9.18351L123.983 6.93799H126.899V12.6033H127.594V14.9622H126.716L126.637 13.5779H123.497L123.418 14.9622H122.508ZM123.939 12.6033H125.669V7.90846H124.982L124.911 9.35156C124.885 9.84309 124.848 10.2632 124.8 10.6119C124.764 10.9014 124.708 11.1879 124.632 11.4689C124.582 11.6596 124.514 11.8447 124.429 12.0214C124.367 12.1481 124.287 12.2643 124.192 12.3659C124.101 12.4457 124.018 12.5297 123.939 12.6033Z" fill="black"/>
<path d="M127.963 13.5781L129.328 10.2361L128.017 6.94238H129.233L130.372 10.0828H130.427V6.94238H131.478V10.0828H131.541L132.672 6.95289H133.887L132.568 10.2466L133.944 13.5886H132.767L131.541 10.3348H131.478V13.5781H130.427V10.3348H130.372L129.14 13.5781H127.963Z" fill="black"/>
<path d="M138.592 13.6683C138.198 13.6896 137.807 13.5926 137.465 13.3889C137.193 13.2074 136.988 12.9346 136.886 12.6159C136.769 12.2446 136.713 11.8554 136.72 11.4648V9.08061C136.711 8.67955 136.767 8.27982 136.886 7.89798C136.986 7.58524 137.187 7.318 137.455 7.14178C137.801 6.93851 138.195 6.84091 138.592 6.8603C138.965 6.84059 139.337 6.92242 139.67 7.09766C139.921 7.25045 140.113 7.48878 140.213 7.77195C140.327 8.09462 140.382 8.4366 140.375 8.78023V9.33688H139.111V8.70671C139.111 8.56636 139.103 8.42612 139.088 8.28659C139.078 8.16604 139.032 8.05175 138.957 7.9589C138.908 7.91167 138.85 7.8758 138.787 7.8537C138.724 7.8316 138.656 7.82378 138.59 7.83077C138.521 7.82426 138.452 7.83267 138.387 7.85545C138.322 7.87824 138.262 7.91491 138.211 7.9631C138.128 8.0575 138.076 8.17651 138.061 8.3034C138.038 8.45626 138.027 8.61082 138.029 8.76552V11.7757C138.027 11.9392 138.041 12.1025 138.071 12.263C138.092 12.3853 138.15 12.4973 138.237 12.5823C138.338 12.6625 138.463 12.7021 138.59 12.6936C138.655 12.7005 138.721 12.6928 138.783 12.671C138.844 12.6493 138.901 12.614 138.949 12.5676C139.024 12.4697 139.071 12.3517 139.084 12.2273C139.103 12.0775 139.112 11.9266 139.111 11.7757V11.1329H140.375V11.6811C140.381 12.0312 140.328 12.3796 140.217 12.7104C140.117 13.0019 139.925 13.2499 139.672 13.4141C139.342 13.602 138.968 13.6901 138.592 13.6683Z" fill="black"/>
<path d="M141.348 13.5782V6.94245H142.969C143.229 6.94091 143.489 6.96553 143.745 7.01597C143.969 7.06027 144.182 7.14947 144.373 7.27854C144.557 7.40781 144.701 7.58844 144.79 7.79949C144.899 8.0729 144.949 8.36737 144.938 8.66283C144.943 8.89636 144.905 9.12877 144.827 9.34762C144.763 9.52332 144.653 9.67739 144.511 9.79294C144.361 9.90816 144.188 9.98453 144.004 10.0156C144.231 10.0441 144.447 10.1339 144.63 10.2761C144.801 10.418 144.932 10.6053 145.009 10.818C145.098 11.0781 145.141 11.3529 145.135 11.6288C145.14 11.923 145.099 12.2161 145.013 12.4964C144.941 12.7254 144.817 12.9334 144.652 13.1035C144.486 13.2664 144.287 13.3884 144.069 13.4606C143.806 13.5433 143.533 13.583 143.258 13.5782H141.348ZM142.644 9.62069H142.967C143.144 9.63146 143.32 9.59683 143.481 9.51986C143.597 9.45146 143.683 9.34042 143.722 9.20898C143.77 9.04283 143.793 8.86986 143.789 8.69644C143.797 8.52786 143.763 8.36008 143.69 8.2091C143.624 8.08543 143.518 7.99063 143.39 7.94233C143.226 7.88284 143.053 7.85507 142.879 7.8604H142.644V9.62069ZM142.644 12.6287H143.007C143.131 12.6429 143.256 12.6274 143.373 12.5833C143.49 12.5392 143.596 12.4678 143.682 12.3746C143.821 12.1475 143.886 11.8803 143.868 11.612C143.877 11.3982 143.847 11.1847 143.781 10.9819C143.731 10.8361 143.631 10.7139 143.501 10.6374C143.34 10.5562 143.162 10.5179 142.983 10.526H142.644V12.6287Z" fill="black"/>
<path d="M145.662 13.578L146.9 10.6204C146.64 10.4616 146.43 10.2301 146.292 9.95242C146.128 9.6252 146.046 9.26029 146.055 8.89163C146.035 8.49432 146.116 8.09859 146.292 7.74471C146.46 7.46362 146.716 7.25083 147.017 7.14184C147.394 7.00623 147.791 6.94219 148.19 6.95279H149.757V13.578H148.46V10.9229H148.152H148.101H148.04L147.07 13.5759L145.662 13.578ZM148.231 9.97342H148.46V7.87284H148.207C148.079 7.86411 147.951 7.88253 147.831 7.92697C147.711 7.97141 147.601 8.04092 147.507 8.13122C147.334 8.3452 147.249 8.62141 147.27 8.90003C147.256 9.17552 147.327 9.44849 147.473 9.67934C147.615 9.8726 147.866 9.97342 148.231 9.97342Z" fill="black"/>
<path d="M152.49 13.6937C152.136 13.7114 151.785 13.6247 151.477 13.4437C151.224 13.279 151.033 13.0301 150.936 12.7379C150.821 12.4008 150.766 12.045 150.774 11.6876V11.4566H151.989V11.7023C151.976 11.9422 152.012 12.1823 152.097 12.406C152.135 12.4812 152.194 12.5428 152.266 12.5825C152.338 12.6223 152.421 12.6384 152.502 12.6287C152.558 12.6326 152.615 12.6248 152.669 12.6057C152.722 12.5865 152.772 12.5565 152.814 12.5174C152.892 12.4283 152.943 12.3171 152.96 12.1981C152.988 12.0261 153.001 11.8516 152.998 11.6771C153.012 11.4082 152.958 11.1402 152.84 10.8999C152.735 10.713 152.52 10.6163 152.194 10.6037C152.171 10.5996 152.148 10.5996 152.125 10.6037H151.862V9.74459H152.17C152.496 9.74459 152.717 9.64166 152.83 9.46521C152.956 9.23378 153.014 8.96976 152.998 8.7048C153.01 8.48695 152.967 8.26962 152.873 8.07463C152.825 8.0019 152.76 7.94392 152.683 7.90691C152.606 7.8699 152.521 7.85527 152.437 7.86457C152.355 7.85545 152.272 7.87249 152.2 7.9134C152.128 7.95431 152.069 8.01715 152.032 8.09353C151.946 8.28362 151.901 8.49074 151.9 8.7006V9.03249H150.684V8.67119C150.673 8.32824 150.748 7.98818 150.901 7.68392C151.039 7.41906 151.251 7.20372 151.509 7.06635C151.799 6.91894 152.119 6.84685 152.441 6.85629C152.77 6.84757 153.096 6.91955 153.393 7.06635C153.65 7.19562 153.863 7.40395 154.001 7.66291C154.147 7.96549 154.217 8.30156 154.204 8.63968C154.216 8.98076 154.135 9.31839 153.971 9.61435C153.845 9.84932 153.637 10.0252 153.389 10.1059C153.546 10.1648 153.689 10.2579 153.809 10.379C153.94 10.5192 154.039 10.6888 154.097 10.8747C154.175 11.1262 154.211 11.3898 154.204 11.654C154.21 12.0182 154.153 12.3805 154.034 12.7232C153.934 13.0166 153.745 13.2691 153.497 13.4437C153.192 13.6279 152.842 13.7148 152.49 13.6937Z" fill="black"/>
<path d="M155.185 13.5781V6.94238H156.22V10.923L157.91 6.94869H158.763V13.5781H157.705V9.5387L155.997 13.5781H155.185Z" fill="black"/>
<path d="M45.314 27.4419V20.8062H46.3575V24.7868L48.0473 20.8125H48.9024V27.4482H47.8427V23.4046L46.1366 27.4419H45.314Z" fill="black"/>
<path d="M52.2192 27.4419V20.8062H53.2627V24.7868L54.9546 20.8125H55.8076V27.4482H54.7479V23.4046L53.0419 27.4419H52.2192Z" fill="black"/>
<path d="M56.9768 27.4419V20.8062H58.2817V23.5369H59.4103V20.8062H60.7151V27.4419H59.4103V24.5011H58.2817V27.4419H56.9768Z" fill="black"/>
<path d="M63.7647 27.6876V26.6772L63.5479 26.6919C63.4709 26.6919 63.3959 26.6919 63.323 26.6919C63.0428 26.6991 62.7651 26.6372 62.5125 26.5113C62.2776 26.3911 62.0834 26.1999 61.9553 25.963C61.8099 25.6783 61.74 25.3586 61.7527 25.0367V23.1125C61.7423 22.8029 61.8123 22.496 61.9553 22.224C62.0918 21.9788 62.2938 21.7797 62.5368 21.6505C62.8029 21.5083 63.0986 21.4362 63.398 21.4405H63.5864C63.6512 21.4405 63.7059 21.4405 63.7525 21.4531V20.3755H64.8366V21.4741C64.8832 21.4741 64.9379 21.4741 64.9987 21.4615H65.1749C65.4808 21.4563 65.7833 21.5284 66.0563 21.6715C66.3003 21.7994 66.5025 21.9988 66.6379 22.245C66.7792 22.5177 66.849 22.8241 66.8405 23.1335V25.0661C66.8512 25.3878 66.7814 25.707 66.6379 25.9924C66.5153 26.2257 66.3293 26.4163 66.1029 26.5407C65.8767 26.6631 65.6246 26.7251 65.3695 26.7213C65.2803 26.7213 65.1911 26.7213 65.104 26.7213L64.8325 26.7045V27.7128L63.7647 27.6876ZM63.5904 25.8601C63.6235 25.8622 63.6567 25.8622 63.6897 25.8601C63.7147 25.8624 63.7398 25.8624 63.7647 25.8601V22.2891L63.6695 22.2765H63.5682C63.443 22.2719 63.3192 22.3047 63.2116 22.371C63.1131 22.4386 63.0373 22.5362 62.9947 22.6504C62.9402 22.7977 62.9147 22.9549 62.9198 23.1125V25.0703C62.9163 25.219 62.9362 25.3672 62.9785 25.5093C63.0133 25.6215 63.085 25.7174 63.1812 25.7803C63.3082 25.8446 63.4496 25.8721 63.5904 25.8601ZM65.0453 25.8601C65.1769 25.8665 65.3078 25.836 65.4242 25.7719C65.5181 25.7066 65.5892 25.6115 65.6268 25.5009C65.675 25.3586 65.6976 25.2084 65.6936 25.0577V23.1062C65.6981 22.9452 65.6754 22.7845 65.6268 22.6315C65.5902 22.5192 65.519 22.4225 65.4242 22.3563C65.3186 22.295 65.1986 22.2651 65.0777 22.2702H64.9541L64.8406 22.2828V25.8538H64.9379C64.9722 25.8581 65.0067 25.8602 65.0412 25.8601H65.0453Z" fill="black"/>
<path d="M69.6688 27.5323C69.2811 27.5524 68.8956 27.4616 68.5544 27.2697C68.281 27.0969 68.0729 26.8322 67.9647 26.5198C67.8384 26.1454 67.778 25.7505 67.7864 25.354V22.8795C67.778 22.4836 67.8384 22.0894 67.9647 21.7158C68.0733 21.4068 68.2816 21.1463 68.5544 20.9785C68.9051 20.8096 69.2871 20.7222 69.6738 20.7222C70.0605 20.7222 70.4426 20.8096 70.7933 20.9785C71.0668 21.1465 71.2764 21.4068 71.387 21.7158C71.5137 22.0879 71.5741 22.4808 71.5653 22.8753V25.354C71.5737 25.7505 71.5133 26.1454 71.387 26.5198C71.2779 26.833 71.0683 27.0977 70.7933 27.2697C70.4485 27.4617 70.0597 27.5525 69.6688 27.5323ZM69.6688 26.5576C69.8027 26.5694 69.9358 26.5264 70.0396 26.4379C70.123 26.3511 70.1783 26.2395 70.1976 26.1186C70.2238 25.9802 70.2367 25.8395 70.2361 25.6985V22.5518C70.2369 22.4108 70.224 22.27 70.1976 22.1317C70.1769 22.0125 70.1218 21.9026 70.0396 21.8166C69.9358 21.728 69.8027 21.685 69.6688 21.6969C69.5393 21.6867 69.4113 21.7297 69.3122 21.8166C69.2299 21.9026 69.1748 22.0125 69.1541 22.1317C69.1277 22.27 69.1148 22.4108 69.1156 22.5518V25.6901C69.1147 25.8309 69.1262 25.9715 69.1501 26.1102C69.1672 26.2309 69.2211 26.3428 69.3041 26.4295C69.4045 26.5205 69.5356 26.5666 69.6688 26.5576Z" fill="black"/>
<path d="M72.6069 27.442V20.8063H74.6331C74.9603 20.7923 75.2851 20.87 75.5733 21.031C75.8155 21.1833 76.0049 21.4113 76.1143 21.6822C76.2404 22.0107 76.301 22.3623 76.2926 22.7157C76.3118 23.1017 76.2313 23.486 76.0596 23.829C75.9148 24.0871 75.6908 24.2876 75.4234 24.3983C75.1281 24.5159 74.8136 24.573 74.4974 24.5663H73.9057V27.442H72.6069ZM73.9118 23.6169H74.3616C74.513 23.6259 74.664 23.5933 74.7993 23.5223C74.9023 23.4547 74.9752 23.3474 75.0019 23.2241C75.0422 23.0522 75.0606 22.8757 75.0566 22.6989C75.0594 22.5284 75.0451 22.358 75.0141 22.1906C74.9867 22.0619 74.9146 21.9483 74.8114 21.8713C74.6683 21.784 74.5028 21.7444 74.3373 21.7578H73.8875L73.9118 23.6169Z" fill="black"/>
<path d="M77.1191 27.4419L77.2306 20.8062H78.6165L79.4067 24.9926L80.2537 20.8062H81.589L81.6984 27.4419H80.7501L80.6488 22.9445L79.8383 27.4419H79.0278L78.1748 22.9109L78.0877 27.4419H77.1191Z" fill="black"/>
<path d="M82.4927 27.4419L83.7327 20.8062H85.1794L86.4114 27.4419H85.1956L84.9667 25.9841H83.9536L83.7084 27.4419H82.4927ZM84.0873 25.1565H84.8532L84.4601 22.4761L84.0873 25.1565Z" fill="black"/>
<path d="M90.9399 28.8262L90.7819 27.4419H87.2502V20.8062H88.545V26.5239H89.7789V20.8062H91.0818V26.5239H91.8922V28.8346L90.9399 28.8262Z" fill="black"/>
<path d="M92.7332 27.4419V20.8062H93.7767V24.7868L95.4685 20.8125H96.3216V27.4482H95.2619V23.4046L93.5558 27.4419H92.7332Z" fill="black"/>
<path d="M99.2616 27.5323C98.8739 27.5525 98.4884 27.4616 98.1472 27.2697C97.8747 27.0959 97.6669 26.8316 97.5575 26.5198C97.432 26.1453 97.3722 25.7504 97.3813 25.354V22.8795C97.3723 22.4838 97.432 22.0896 97.5575 21.7158C97.6668 21.4073 97.875 21.147 98.1472 20.9785C98.4982 20.8096 98.8806 20.7222 99.2676 20.7222C99.6547 20.7222 100.037 20.8096 100.388 20.9785C100.661 21.1466 100.87 21.407 100.98 21.7158C101.107 22.0877 101.168 22.4807 101.158 22.8753V25.354C101.167 25.7506 101.107 26.1457 100.98 26.5198C100.872 26.8328 100.663 27.0977 100.388 27.2697C100.042 27.4614 99.6531 27.5522 99.2616 27.5323ZM99.2616 26.5576C99.3955 26.5695 99.5286 26.5265 99.6324 26.4379C99.7158 26.3512 99.7711 26.2395 99.7904 26.1186C99.8173 25.9803 99.8309 25.8396 99.8309 25.6985V22.5518C99.8311 22.4107 99.8175 22.27 99.7904 22.1317C99.7697 22.0125 99.7146 21.9027 99.6324 21.8166C99.5286 21.7281 99.3955 21.6851 99.2616 21.6969C99.1321 21.6867 99.0041 21.7297 98.905 21.8166C98.8227 21.9027 98.7676 22.0125 98.7469 22.1317C98.7205 22.2701 98.7076 22.4108 98.7084 22.5518V25.6901C98.7085 25.8309 98.72 25.9714 98.7429 26.1102C98.76 26.231 98.8139 26.3429 98.8969 26.4295C98.9973 26.5205 99.1284 26.5666 99.2616 26.5576Z" fill="black"/>
<path d="M102.216 27.4419V20.8062H103.521V23.5369H104.651V20.8062H105.954V27.4419H104.651V24.5011H103.521V27.4419H102.216Z" fill="black"/>
<path d="M107.131 27.4419V20.8062H108.436V23.5369H109.565V20.8062H110.87V27.4419H109.565V24.5011H108.436V27.4419H107.131Z" fill="black"/>
<path d="M112.049 27.4419V20.8062H113.352V23.5999H113.654C114.016 23.588 114.376 23.6552 114.711 23.7974C114.989 23.9206 115.218 24.1385 115.36 24.415C115.52 24.758 115.596 25.1369 115.581 25.5178C115.591 25.8455 115.54 26.1722 115.431 26.4798C115.344 26.7104 115.199 26.9128 115.011 27.0659C114.823 27.2116 114.606 27.312 114.375 27.36C114.109 27.4169 113.837 27.4444 113.565 27.4419H112.049ZM113.352 26.5491H113.575C113.738 26.5566 113.9 26.5197 114.045 26.442C114.168 26.3655 114.259 26.2442 114.3 26.1017C114.359 25.9046 114.383 25.6984 114.371 25.4925C114.378 25.2492 114.319 25.0087 114.199 24.7994C114.087 24.6292 113.875 24.5431 113.559 24.5431H113.356L113.352 26.5491ZM116.142 27.4419V20.8062H117.447V27.4419H116.142Z" fill="black"/>
<path d="M118.178 27.4419L119.443 23.894L118.227 20.8062H119.459L120.217 22.7156L120.857 20.8062H121.957L120.786 24.207L122.067 27.4419H120.851L120.014 25.3539L119.278 27.4419H118.178Z" fill="black"/>
<path d="M125.535 27.4419V21.8144H124.549V20.8062H127.819V21.8144H126.84V27.4419H125.535Z" fill="black"/>
<path d="M128.571 27.4419V20.8062H131.359V21.7409H129.879V23.5012H131.026V24.4444H129.879V26.5239H131.381V27.4419H128.571Z" fill="black"/>
<path d="M131.786 27.4419L133.05 23.894L131.835 20.8062H133.069L133.827 22.7156L134.467 20.8062H135.565L134.396 24.207L135.676 27.4419H134.461L133.624 25.3539L132.888 27.4419H131.786Z" fill="black"/>
<path d="M136.408 27.4419V20.8062H137.713V23.5369H138.843V20.8062H140.146V27.4419H138.843V24.5011H137.713V27.4419H136.408Z" fill="black"/>
<path d="M143.094 27.5323C142.707 27.5525 142.321 27.4616 141.98 27.2697C141.707 27.0959 141.5 26.8316 141.39 26.5198C141.265 26.1453 141.205 25.7504 141.214 25.354V22.8795C141.205 22.4838 141.265 22.0896 141.39 21.7158C141.5 21.4073 141.708 21.147 141.98 20.9785C142.331 20.8096 142.713 20.7222 143.1 20.7222C143.487 20.7222 143.87 20.8096 144.221 20.9785C144.494 21.1466 144.703 21.407 144.813 21.7158C144.94 22.0877 145.001 22.4807 144.991 22.8753V25.354C145 25.7506 144.94 26.1457 144.813 26.5198C144.704 26.8328 144.495 27.0977 144.221 27.2697C143.875 27.4614 143.486 27.5522 143.094 27.5323ZM143.094 26.5576C143.228 26.5695 143.361 26.5265 143.465 26.4379C143.549 26.3512 143.604 26.2395 143.623 26.1186C143.65 25.9803 143.664 25.8396 143.664 25.6985V22.5518C143.664 22.4107 143.65 22.27 143.623 22.1317C143.602 22.0125 143.547 21.9027 143.465 21.8166C143.361 21.7281 143.228 21.6851 143.094 21.6969C142.965 21.6867 142.837 21.7297 142.738 21.8166C142.656 21.9027 142.6 22.0125 142.58 22.1317C142.553 22.2701 142.54 22.4108 142.541 22.5518V25.6901C142.541 25.8309 142.553 25.9714 142.576 26.1102C142.593 26.231 142.647 26.3429 142.73 26.4295C142.83 26.5205 142.961 26.5666 143.094 26.5576Z" fill="black"/>
<path d="M145.599 27.442V26.4842C145.735 26.4867 145.871 26.474 146.004 26.4464C146.109 26.4245 146.202 26.3631 146.265 26.2741C146.346 26.1468 146.401 26.0039 146.428 25.854C146.478 25.6044 146.513 25.3519 146.533 25.0978C146.561 24.7806 146.594 24.3794 146.624 23.8921L146.837 20.8042H150.101V27.4399H148.804V21.8461H148.008L147.872 24.1147C147.842 24.6378 147.805 25.0936 147.767 25.478C147.737 25.8069 147.676 26.132 147.585 26.4485C147.519 26.6863 147.396 26.903 147.228 27.0786C147.052 27.2453 146.834 27.3561 146.6 27.3979C146.269 27.4564 145.933 27.4712 145.599 27.442Z" fill="black"/>
<path d="M153.051 27.5323C152.663 27.5525 152.278 27.4616 151.937 27.2697C151.664 27.0959 151.456 26.8316 151.347 26.5198C151.221 26.1453 151.162 25.7504 151.171 25.354V22.8795C151.162 22.4838 151.222 22.0896 151.347 21.7158C151.456 21.4073 151.665 21.147 151.937 20.9785C152.288 20.8096 152.67 20.7222 153.057 20.7222C153.444 20.7222 153.827 20.8096 154.178 20.9785C154.451 21.1466 154.66 21.407 154.769 21.7158C154.897 22.0877 154.957 22.4807 154.948 22.8753V25.354C154.957 25.7506 154.897 26.1457 154.769 26.5198C154.661 26.8328 154.452 27.0977 154.178 27.2697C153.832 27.4614 153.443 27.5522 153.051 27.5323ZM153.051 26.5576C153.185 26.5695 153.318 26.5265 153.422 26.4379C153.505 26.3512 153.561 26.2395 153.58 26.1186C153.607 25.9803 153.62 25.8396 153.62 25.6985V22.5518C153.621 22.4107 153.607 22.27 153.58 22.1317C153.559 22.0125 153.504 21.9027 153.422 21.8166C153.318 21.7281 153.185 21.6851 153.051 21.6969C152.922 21.6867 152.794 21.7297 152.694 21.8166C152.612 21.9027 152.557 22.0125 152.536 22.1317C152.51 22.2701 152.497 22.4108 152.498 22.5518V25.6901C152.498 25.8309 152.51 25.9714 152.532 26.1102C152.55 26.231 152.603 26.3429 152.686 26.4295C152.787 26.5205 152.918 26.5666 153.051 26.5576Z" fill="black"/>
<path d="M156.005 27.4419V20.8062H158.854V21.8144H157.306V27.4419H156.005Z" fill="black"/>
<path d="M159.711 27.4419V20.8062H160.755V24.7868L162.447 20.8125H163.3V27.4482H162.24V23.4046L160.534 27.4419H159.711Z" fill="black"/>
<path d="M164.469 27.4417V20.806H165.512V24.7866L167.204 20.8123H168.057V27.448H166.997V23.4044L165.291 27.4417H164.469ZM166.365 20.2745C166.205 20.2842 166.045 20.2609 165.894 20.2061C165.743 20.1513 165.603 20.0661 165.484 19.9553C165.373 19.8337 165.287 19.69 165.232 19.5328C165.177 19.3756 165.154 19.2084 165.164 19.0415H165.845C165.834 19.1995 165.875 19.3566 165.962 19.4868C166.014 19.5421 166.078 19.5844 166.148 19.6106C166.218 19.6368 166.293 19.6462 166.367 19.6381C166.442 19.6466 166.517 19.637 166.588 19.61C166.658 19.583 166.721 19.5394 166.773 19.4826C166.862 19.3549 166.905 19.199 166.896 19.0415H167.567C167.576 19.2087 167.551 19.376 167.496 19.5331C167.44 19.6902 167.354 19.8339 167.243 19.9553C167.124 20.0663 166.986 20.1518 166.835 20.2066C166.684 20.2614 166.525 20.2845 166.365 20.2745Z" fill="black"/>
<defs>
<linearGradient id="paint0_linear" x1="0" y1="0" x2="33.9779" y2="32.7748" gradientUnits="userSpaceOnUse">
<stop stop-color="#0034FC"/>
<stop offset="0.25" stop-color="#2226FD"/>
<stop offset="0.76" stop-color="#630BFE"/>
<stop offset="1" stop-color="#7C00FF"/>
</linearGradient>
</defs>
</svg>
