<svg width="20" height="20" viewBox="0 0 20 20" fill="none" xmlns="http://www.w3.org/2000/svg">
<g clip-path="url(#clip0)">
<path d="M17.156 12.1772C17.156 11.0552 17.156 2.64313 17.156 2.34688C17.156 2.03948 16.908 1.79033 16.602 1.79033H13.795V1.19668C13.795 0.889278 13.547 0.640137 13.241 0.640137C12.935 0.640137 12.687 0.889278 12.687 1.19668V1.79033H9.36302V1.19668C9.36302 0.889278 9.11502 0.640137 8.80902 0.640137C8.50302 0.640137 8.25502 0.889278 8.25502 1.19668V1.79033H4.93102V1.19668C4.93102 0.889278 4.68302 0.640137 4.37702 0.640137C4.07102 0.640137 3.82302 0.889278 3.82302 1.19668V1.79033H1.05302C0.747025 1.79033 0.499023 2.03948 0.499023 2.34688V17.9302C0.499023 18.2376 0.747025 18.4867 1.05302 18.4867H12.743C13.4861 19.2285 14.4626 19.6369 15.494 19.6369C17.6349 19.6369 19.4089 17.8609 19.4089 15.704C19.4089 14.1468 18.486 12.8004 17.156 12.1772ZM3.82302 2.90343V4.01652H3.26902C2.96302 4.01652 2.71502 4.26566 2.71502 4.57307C2.71502 4.88047 2.96302 5.12962 3.26902 5.12962H5.48502C5.79102 5.12962 6.03902 4.88047 6.03902 4.57307C6.03902 4.26566 5.79102 4.01652 5.48502 4.01652H4.93102V2.90343H8.25502V4.01652H7.70102C7.39502 4.01652 7.14702 4.26566 7.14702 4.57307C7.14702 4.88047 7.39502 5.12962 7.70102 5.12962H9.91702C10.223 5.12962 10.471 4.88047 10.471 4.57307C10.471 4.26566 10.223 4.01652 9.91702 4.01652H9.36302V2.90343H12.687V4.01652H12.133C11.827 4.01652 11.579 4.26566 11.579 4.57307C11.579 4.88047 11.827 5.12962 12.133 5.12962H14.349C14.655 5.12962 14.903 4.88047 14.903 4.57307C14.903 4.26566 14.655 4.01652 14.349 4.01652H13.795V2.90343H16.048V6.24271H1.60702V2.90343H3.82302ZM1.60702 7.3558H16.048V11.8473C15.8669 11.8217 15.6821 11.8082 15.494 11.8082C13.3352 11.8082 11.579 13.5558 11.579 15.704C11.579 16.289 11.7086 16.8562 11.9541 17.3736H1.60702V7.3558ZM15.494 18.5238C13.9725 18.5238 12.687 17.2325 12.687 15.704C12.687 14.1696 13.9462 12.9213 15.494 12.9213C17.029 12.9213 18.3009 14.1583 18.3009 15.704C18.3009 17.2325 17.0154 18.5238 15.494 18.5238Z" fill="black"/>
<path d="M16.6019 15.1473H16.0479V14.5907C16.0479 14.2833 15.7999 14.0342 15.4939 14.0342C15.1879 14.0342 14.9399 14.2833 14.9399 14.5907V15.7038C14.9399 16.0112 15.1879 16.2604 15.4939 16.2604H16.6019C16.9079 16.2604 17.1559 16.0112 17.1559 15.7038C17.1559 15.3964 16.9079 15.1473 16.6019 15.1473Z" fill="black"/>
<path d="M5.48509 8.46875H3.26909C2.96309 8.46875 2.71509 8.71789 2.71509 9.0253V11.2515C2.71509 11.5589 2.96309 11.808 3.26909 11.808H5.48509C5.79109 11.808 6.03909 11.5589 6.03909 11.2515V9.0253C6.03909 8.71789 5.79109 8.46875 5.48509 8.46875ZM4.93109 10.6949H3.82309V9.58184H4.93109V10.6949Z" fill="black"/>
<path d="M5.48509 12.9214H3.26909C2.96309 12.9214 2.71509 13.1705 2.71509 13.4779V15.7041C2.71509 16.0115 2.96309 16.2607 3.26909 16.2607H5.48509C5.79109 16.2607 6.03909 16.0115 6.03909 15.7041V13.4779C6.03909 13.1705 5.79109 12.9214 5.48509 12.9214ZM4.93109 15.1476H3.82309V14.0345H4.93109V15.1476Z" fill="black"/>
<path d="M9.91697 8.46875H7.70097C7.39497 8.46875 7.14697 8.71789 7.14697 9.0253V11.2515C7.14697 11.5589 7.39497 11.808 7.70097 11.808H9.91697C10.223 11.808 10.471 11.5589 10.471 11.2515V9.0253C10.471 8.71789 10.223 8.46875 9.91697 8.46875ZM9.36297 10.6949H8.25497V9.58184H9.36297V10.6949Z" fill="black"/>
<path d="M9.91697 12.9214H7.70097C7.39497 12.9214 7.14697 13.1705 7.14697 13.4779V15.7041C7.14697 16.0115 7.39497 16.2607 7.70097 16.2607H9.91697C10.223 16.2607 10.471 16.0115 10.471 15.7041V13.4779C10.471 13.1705 10.223 12.9214 9.91697 12.9214ZM9.36297 15.1476H8.25497V14.0345H9.36297V15.1476Z" fill="black"/>
<path d="M12.1329 11.808H14.3489C14.6549 11.808 14.9029 11.5589 14.9029 11.2515V9.0253C14.9029 8.71789 14.6549 8.46875 14.3489 8.46875H12.1329C11.8269 8.46875 11.5789 8.71789 11.5789 9.0253V11.2515C11.5789 11.5589 11.8269 11.808 12.1329 11.808ZM12.6869 9.58184H13.7949V10.6949H12.6869V9.58184Z" fill="black"/>
</g>
<defs>
<clipPath id="clip0">
<rect width="18.9099" height="18.9968" fill="white" transform="translate(0.499023 0.640137)"/>
</clipPath>
</defs>
</svg>
