<svg width="35" height="27" viewBox="0 0 35 27" fill="none" xmlns="http://www.w3.org/2000/svg">
<path d="M10.2963 3.58055L17.3643 3.58055C17.3643 3.58055 19.19 3.54857 20.3068 5.03157L22.2465 7.29671C22.5385 7.5611 22.7178 7.92792 22.7477 8.32046C22.7776 8.713 22.6557 9.10205 22.4071 9.40751C22.1586 9.71296 21.8022 9.91158 21.4115 9.96248C21.0208 10.0134 20.6255 9.91266 20.3068 9.68109M20.3068 9.68109C20.232 9.62652 20.1624 9.56519 20.0988 9.49788M20.3068 9.68109L17.6036 7.29737L7.62705 17.172C7.11429 17.679 6.18745 18.3559 6.18745 19.2979C6.18745 19.7503 6.36729 20.1841 6.68741 20.5039C7.00753 20.8237 7.44171 21.0034 7.89443 21.0034C8.83727 21.0034 9.36137 20.3652 9.8748 19.8436M9.74946 19.9701L15.4992 14.1554M9.74946 19.9701C9.59913 20.1374 9.48339 20.3313 9.40884 20.5434C9.3343 20.7554 9.30245 20.9801 9.31512 21.2046C9.32779 21.429 9.38473 21.6487 9.48268 21.851C9.58062 22.0534 9.71763 22.2344 9.88583 22.3836C10.054 22.5329 10.2501 22.6475 10.4628 22.7208C10.6754 22.7941 10.9005 22.8246 11.125 22.8107C11.3496 22.7968 11.5692 22.7387 11.7711 22.6397C11.9731 22.5407 12.1535 22.4028 12.302 22.2339L19.1839 15.3719M9.74946 19.9701L9.75348 19.9648C9.79171 19.9204 9.83172 19.8798 9.8735 19.8429H9.8775M25.3717 5.05689L22.7566 5.05689C22.7566 5.05689 21.297 5.09287 20.6989 5.48993M12.6447 7.05954C12.6447 7.05954 12.638 9.12481 14.5871 10.2827M5.17534 12.4392L8.71133 16.0988M14.1423 20.3998C13.4755 21.0661 12.818 21.4585 12.818 22.3985C12.818 22.8508 12.9979 23.2846 13.318 23.6045C13.6381 23.9243 14.0723 24.104 14.525 24.104C15.4679 24.104 16.3747 23.0927 17.0415 22.4265M30.458 13.7997L27.9355 16.32M28.1171 2.71559L25.8142 4.04402C25.369 4.30084 25.2164 4.86965 25.4735 5.31448L30.2197 13.5281C30.4768 13.9729 31.046 14.1253 31.4913 13.8685L33.7942 12.5401C34.2394 12.2832 34.3919 11.7144 34.1349 11.2696L29.3887 3.056C29.1316 2.61117 28.5623 2.45876 28.1171 2.71559ZM1.85718 11.1664L4.16008 12.4948C4.60529 12.7516 5.17459 12.5992 5.43163 12.1544L10.1778 3.9408C10.4349 3.49597 10.2824 2.92716 9.83714 2.67034L7.53424 1.3419C7.08902 1.08508 6.51973 1.23749 6.26268 1.68232L1.51647 9.89593C1.25942 10.3408 1.41196 10.9096 1.85718 11.1664ZM27.5897 15.7865L26.9984 15.1957C26.3495 14.5474 25.2974 14.5474 24.6485 15.1957C23.9996 15.8441 23.9991 16.8958 24.648 17.5441L25.2393 18.1348C25.8882 18.7832 26.9403 18.7832 27.5892 18.1348C28.2381 17.4865 28.2386 16.4348 27.5897 15.7865ZM25.403 18.2973L24.4633 17.3584C23.8144 16.7101 22.7623 16.7101 22.1134 17.3584L21.9399 17.5318C21.291 18.1801 21.291 19.2313 21.9399 19.8797L22.8796 20.8185C23.5285 21.4669 24.5806 21.4669 25.2295 20.8185L25.403 20.6452C26.0519 19.9968 26.0519 18.9456 25.403 18.2973ZM22.9384 20.878L21.9987 19.9391C21.3498 19.2908 20.2977 19.2908 19.6488 19.9391L19.5168 20.071C18.8678 20.7194 18.8678 21.7706 19.5168 22.4189L20.4564 23.3578C21.1054 24.0062 22.1574 24.0062 22.8064 23.3578L22.9384 23.2259C23.5873 22.5776 23.5873 21.5264 22.9384 20.878ZM20.4749 23.3751L19.4593 22.3604C18.8104 21.7121 17.7583 21.7121 17.1094 22.3604L17.0415 22.4283C16.3926 23.0766 16.3926 24.1278 17.0415 24.7762L18.0571 25.7909C18.706 26.4392 19.7581 26.4392 20.407 25.7909L20.4749 25.723C21.1238 25.0747 21.1238 24.0235 20.4749 23.3751Z" stroke="#2818C6" stroke-width="1.34701" stroke-linecap="round" stroke-linejoin="round"/>
</svg>
