<svg width="62" height="50" viewBox="0 0 62 50" fill="none" xmlns="http://www.w3.org/2000/svg">
<path d="M49.4286 14.8601H55.6771C56.3755 14.8584 57.0674 14.9945 57.7131 15.2606C58.3589 15.5267 58.9458 15.9176 59.4402 16.4108C59.9346 16.9041 60.3269 17.49 60.5946 18.1351C60.8622 18.7801 61 19.4717 61 20.1701V44.1701H55.12M46.8271 44.1701H27.3571M10.18 44.1701H1V20.1701C1 20.0244 1 19.8787 1 19.7415C1.10791 18.4088 1.71465 17.1658 2.69901 16.2609C3.68338 15.356 4.9729 14.8557 6.31 14.8601H39.5371M34.66 31.4287H10.66M44.4143 32.2858H42.3143M37.09 14.86L14.5086 1M11.2429 1H18.9186M24.5028 1H58.6M6.36571 1H1M44.4143 44.1615V20.4272H34.66V44.1572L44.4143 44.1615ZM1 19.7372C1 19.8787 1 20.0244 1 20.1658V26.5644H6.36571V19.7372H1ZM11.2429 26.5644H18.0743V19.7372H11.2429V26.5644ZM22.9514 26.5644H29.7829V19.7372H22.9514V26.5644ZM49.2914 31.3858H61V20.4187H49.2914V31.3858ZM18.9443 40.0001C18.1238 40.0001 17.3217 40.2434 16.6395 40.6993C15.9572 41.1551 15.4255 41.803 15.1115 42.5611C14.7975 43.3191 14.7154 44.1533 14.8754 44.958C15.0355 45.7628 15.4306 46.502 16.0108 47.0821C16.591 47.6623 17.3302 48.0575 18.1349 48.2175C18.9397 48.3776 19.7738 48.2954 20.5319 47.9814C21.2899 47.6674 21.9378 47.1357 22.3937 46.4535C22.8495 45.7713 23.0929 44.9692 23.0929 44.1487C23.0934 43.6037 22.9865 43.064 22.7782 42.5604C22.5699 42.0568 22.2644 41.5993 21.879 41.2139C21.4937 40.8286 21.0361 40.523 20.5325 40.3147C20.029 40.1064 19.4892 39.9995 18.9443 40.0001ZM50.9714 40.0001C50.1509 40.0001 49.3488 40.2434 48.6666 40.6993C47.9844 41.1551 47.4526 41.803 47.1386 42.5611C46.8247 43.3191 46.7425 44.1533 46.9026 44.958C47.0626 45.7628 47.4578 46.502 48.0379 47.0821C48.6181 47.6623 49.3573 48.0575 50.1621 48.2175C50.9668 48.3776 51.801 48.2954 52.559 47.9814C53.3171 47.6674 53.965 47.1357 54.4208 46.4535C54.8767 45.7713 55.12 44.9692 55.12 44.1487C55.1206 43.6037 55.0136 43.064 54.8054 42.5604C54.5971 42.0568 54.2915 41.5993 53.9062 41.2139C53.5208 40.8286 53.0633 40.523 52.5597 40.3147C52.0561 40.1064 51.5164 39.9995 50.9714 40.0001Z" stroke="url(#paint0_linear)" stroke-width="2" stroke-linecap="round" stroke-linejoin="round"/>
<defs>
<linearGradient id="paint0_linear" x1="3.68286" y1="1" x2="3.68286" y2="2" gradientUnits="userSpaceOnUse">
<stop stop-color="#102CFC"/>
<stop offset="1" stop-color="#5B0DFD"/>
</linearGradient>
</defs>
</svg>
