<svg width="27" height="16" viewBox="0 0 27 16" fill="none" xmlns="http://www.w3.org/2000/svg">
<path d="M3.09765 1.19444H1.72554C1.72554 1.19444 0.812208 1.22205 1.03502 2.11509C1.25783 3.00813 4.86273 14.1796 13.047 14.4912C13.047 14.4912 14.2865 14.4983 14.5775 14.3336C14.8684 14.1689 15.0814 14.0888 15.0814 13.6009V11.2975C15.0814 11.2975 15.056 10.7383 15.3061 10.591C15.5561 10.4436 16.1348 10.4739 16.5884 10.7437C17.042 11.0134 18.2125 11.7849 20.0495 13.7389C20.2327 13.9721 20.4709 14.1617 20.7451 14.2926C21.0192 14.4234 21.3219 14.4919 21.6289 14.4926H24.1272C24.1272 14.4926 25.6291 14.5776 24.8624 13.104C24.0958 11.6305 21.29 9.11829 21.29 9.11829C21.29 9.11829 20.3075 8.65841 21.0775 7.61445C21.8474 6.5705 24.3548 3.16261 24.5743 1.96061C24.5743 1.96061 24.8145 1.19622 23.7752 1.19622H21.0587C21.0587 1.19622 20.3668 1.08983 19.9005 2.02738C19.4342 2.96494 17.5464 6.42848 16.3031 7.27077C15.0598 8.11306 15.0983 7.1666 15.0983 7.1666L15.0795 2.03228C15.0795 2.03228 15.2149 1.19444 14.2259 1.19444H10.2007C10.2007 1.19444 9.00068 1.34803 9.78192 2.27046C10.5632 3.19288 10.5768 4.14468 10.5768 4.14468L10.5735 7.92875C10.5735 7.92875 10.6402 9.72285 8.91654 7.84328C7.19282 5.96371 5.61859 1.86667 5.61859 1.86667C5.61859 1.86667 5.52128 1.19177 4.3654 1.19177C3.20952 1.19177 3.09765 1.19444 3.09765 1.19444Z" stroke="white" stroke-width="2" stroke-linecap="round" stroke-linejoin="round"/>
</svg>
